<?xml version="1.0" standalone="no"?>
<!DOCTYPE svg PUBLIC "-//W3C//DTD SVG 1.1//EN" "http://www.w3.org/Graphics/SVG/1.1/DTD/svg11.dtd" >
<svg xmlns="http://www.w3.org/2000/svg" xmlns:xlink="http://www.w3.org/1999/xlink" version="1.1">
<metadata>
Created by FontForge 20170910 at Wed Jul  8 06:43:07 2015
 By Jimmy Wärting
www.fontiran.com
</metadata>
<defs>
<font id="FatemeFaramarzeian" horiz-adv-x="0" >
  <font-face 
    font-family="Fateme Faramarzeian"
    font-weight="400"
    font-stretch="normal"
    units-per-em="1000"
    panose-1="3 0 4 0 0 0 0 0 0 0"
    ascent="800"
    descent="-200"
    bbox="-138 -670.154 1533.33 1299"
    underline-thickness="29"
    underline-position="-453"
    unicode-range="U+0020-FEFC"
  />
<missing-glyph horiz-adv-x="334" 
d="M143 76v44h37v-44h-37zM146 153v11q0 36 10 57q7 12 28 34q21 21 27 31q6 11 6 24q0 23 -15 39t-34 16q-22 0 -36.5 -14.5t-17.5 -47.5l-33 6q4 46 28.5 67.5t59.5 21.5t58 -24q23 -23 23 -61q0 -22 -7 -38q-9 -15 -33 -39q-25 -24 -28 -37q-5 -11 -5 -46h-31zM306 28
v413h-278v-413h278zM334 469v-469h-334v469h334z" />
    <glyph glyph-name="uniFEFB" unicode="&#xfedf;&#xfe8e;" horiz-adv-x="610" arabic-form="isolated" 
d="M464 816q7 8 22 10.5t31.5 0.5t30.5 -9.5t20 -19.5q5 -26 9 -73t2.5 -108t-11 -131t-30 -142t-54.5 -141.5t-85 -128.5q-35 -43 -84 -58.5t-113 -15.5q-30 1 -58 11.5t-51 28.5t-39.5 43t-23.5 55q19 10 40.5 7t44 -10.5t45 -15.5t42.5 -8q44 2 78.5 32t60 77.5t44 108.5
t31 124.5t20.5 125.5t13 112t8.5 84t6.5 41zM285 713q4 -40 5 -97t-4 -118t-16.5 -121t-33 -105t-54.5 -69t-79 -15q15 51 28.5 123.5t27 149.5t27.5 150t29 124q7 12 17.5 14.5t21.5 -1.5t19.5 -13.5t11.5 -21.5z" />
    <glyph glyph-name="uniFEFC" unicode="&#xfee0;&#xfe8e;" horiz-adv-x="490" arabic-form="final" 
d="M241 716q4 -40 5.5 -97t-3.5 -118.5t-16.5 -121.5t-33 -105t-54.5 -69.5t-79 -15.5q15 51 29 124t27.5 150t27 149.5t28.5 124.5q7 12 17.5 14.5t21.5 -1.5t19.5 -13t10.5 -21zM490 105q6 0 9 -1.5l7 -3.5q5 -5 9.5 -15.5t4.5 -31.5q-2 -22 -7 -32t-10 -16q-5 -5 -13 -5
q-18 -1 -36 5.5t-35.5 18t-32.5 27t-27 32.5q0 -2 -1 -2.5t-1 -3.5q-37 -44 -85.5 -60t-111.5 -16q-31 1 -59 11.5t-51 29t-39 44t-23 55.5q18 10 40 7t44.5 -10.5t45 -16t42.5 -8.5q44 2 78.5 32t60 77.5t43.5 108t30.5 124.5t20.5 126t13 112t8 84t6 41q7 8 22.5 11
t32 0.5t31.5 -9.5t21 -19q5 -22 8 -61.5t2.5 -91t-6.5 -111t-19.5 -122.5t-35.5 -126t-56 -120q-6 -12 -1.5 -23.5t15.5 -20.5t26 -14.5t30 -5.5z" />
    <glyph glyph-name="uniFDF2" unicode="&#x627;&#xfedf;&#xfee0;&#xfeea;" horiz-adv-x="1144" arabic-form="isolated" 
d="M737 870q22 -19 29 -45.5t4.5 -54.5t-10.5 -54t-15 -45q-7 -5 -17 -9t-19.5 -5t-16 1t-6.5 9q-6 55 -2 103.5t12 93.5q9 9 19.5 13t21.5 -7zM623 649q6 0 6 -6.5t-2.5 -16t-4.5 -20t-0.5 -18t9 -10t25.5 3.5q17 7 27.5 5t19 -6.5t18 -9.5t24.5 -4q7 6 8.5 20t3.5 27
t8 21.5t22 3.5q18 -8 28 -25t12.5 -37.5t-1.5 -40.5t-15 -35q-9 -10 -26 -19t-36.5 -11.5t-38.5 6t-32 33.5q-6 6 -18 -0.5t-27.5 -14t-33 -8.5t-35.5 17q-18 19 -21 43t6 46t28 37.5t46 18.5zM938 676q19 -35 25 -95.5t0 -132t-23 -146t-44 -137.5t-63 -107.5t-79 -55.5
q-46 -6 -76 5.5t-55 26.5q-23 -17 -45.5 -34t-50 -29.5t-62 -18t-80.5 0.5q-18 7 -35.5 23.5t-31 40.5t-22 54t-9.5 63q-7 8 -20 1.5t-29 -22t-35 -37t-38 -45t-37.5 -45.5t-33.5 -38q-30 -14 -44 -5t-14 22q8 58 37.5 122t72.5 118q12 16 35.5 34t50.5 34t54 26.5t47 10.5
q35 -1 53 -19t26.5 -44.5t9 -57.5t0 -58t1 -45.5t10.5 -20.5q38 -8 63 6t42 41.5t29 64.5t24 74.5t26 71.5t37 57q7 6 22 3t29 -12.5t22 -26.5t2 -40q-2 -8 -8.5 -26.5t-14.5 -41t-15.5 -47.5t-12 -45.5t-5 -34t7.5 -14.5q18 -3 30.5 1.5t21.5 12.5t15.5 17t11.5 15
q20 27 35.5 75t28.5 104.5t23.5 116.5t19 110.5t16.5 85.5t16 43q7 12 18.5 16t20.5 -16zM1049 676q28 -19 38 -69t6 -115.5t-19 -139t-35 -141t-43.5 -121.5t-43.5 -80q-3 0 -0.5 22t7 62t10.5 95.5t9 122.5q2 24 6 67.5t10 93.5t14 100t18 87q5 15 9 18t14 -2z" />
    <glyph glyph-name="kala" unicode="&#xfb90;&#xfee0;&#xfe8e;" horiz-adv-x="1243" 
d="M1243 1117q27 19 52.5 41.5t52 38t54.5 21t58 -7.5q-6 -49 -23.5 -91t-42.5 -78t-55 -65.5t-60.5 -54t-58 -44t-47.5 -33.5q-76 -54 -144.5 -104t-132 -100t-123 -103t-116.5 -113q72 -2 109.5 -32t49 -73t-0.5 -94t-38.5 -96t-65 -77t-80.5 -39q-40 -5 -74 1.5
t-65.5 19.5t-61 30t-59.5 34q-40 -23 -85 -37.5t-89.5 -15.5t-87 13t-76.5 47q-4 12 -1.5 26.5t9 27.5t17.5 23.5t23 14.5q22 -39 51 -54t61 -12t64.5 21t60.5 46t49.5 63t32.5 72q5 16 12.5 56.5t17.5 96.5t22.5 121.5t26.5 131t30.5 125.5t34.5 105t37 69.5t40 18.5
q11 -5 14 -33t0 -71t-10.5 -97t-16 -111t-17.5 -113t-16 -102.5t-10 -80.5t1 -46q9 17 28.5 43.5t39.5 51.5q23 29 49 59q54 59 124 133.5t145.5 151.5t150.5 149t140 126zM705 310q-6 11 -23 11t-39 -8.5t-45.5 -23.5t-42.5 -33t-31 -37.5t-10 -36.5q7 -52 27 -71t44.5 -14
t50 28.5t44.5 55t27 66.5t-2 63zM217 369q-11 -27 -24 -45.5t-26.5 -30.5t-27 -19t-25.5 -11q6 45 16 103.5t23 123t29 131t34.5 127t40.5 111t47 83.5q9 11 24.5 9t24.5 -16q9 -23 5.5 -67t-15 -99t-28.5 -115.5t-35 -115.5t-35 -100t-28 -69z" />
    <glyph glyph-name="ka" unicode="&#xfb90;&#xfe8e;" horiz-adv-x="883" 
d="M337 409q65 10 112 -13.5t71.5 -65.5t24 -95t-30.5 -103q-18 -27 -43.5 -48.5t-53.5 -37.5t-55 -25.5t-48 -12.5q-48 0 -88.5 9.5t-70.5 28t-47.5 45.5t-20.5 61q-4 48 -3 120.5t6 157t14 174.5t21 174t26.5 155t31.5 118q11 27 26 26t18 -33q-1 -17 -2.5 -52t-3.5 -81.5
t-4 -101t-3.5 -111.5t-2 -112.5t-0.5 -103.5t1.5 -85.5t4.5 -57.5q6 6 21.5 17t33.5 22t36 20t29 11zM223 145q31 -15 69 -6t70.5 33t53.5 58t18 69q-8 11 -30 7t-49.5 -17t-55.5 -33t-49 -40.5t-30 -39.5t3 -31zM995 1245q21 -44 2.5 -103t-63.5 -125.5t-110 -136.5
t-136.5 -137t-143.5 -126.5t-131 -104.5t-99 -72t-47 -28q-2 9 28 51.5t80 106.5t114.5 141.5t132.5 156t134 151.5t118 126.5t85 82t36 17.5z" />
    <glyph glyph-name="kal" unicode="&#xfb90;&#xfede;" horiz-adv-x="1468" 
d="M952 374q38 -21 57 -56.5t19 -76t-17.5 -81.5t-51.5 -73t-83 -50t-112 -13q-11 0 -24.5 3.5t-27 9t-24.5 11t-16 10.5q-8 -7 -17 -19t-28 -39q-4 -5 -19.5 -22.5t-39.5 -40.5t-55 -49.5t-65 -50t-70 -42.5t-70 -27q-56 -13 -97.5 -1t-69.5 34.5t-43.5 49t-21.5 41.5
q-21 55 -27 108t-4 96.5t9.5 74t14.5 41.5q21 31 47.5 56t54.5 44t57 33t56 24q63 23 129 30q-5 -15 -32.5 -34t-64 -43t-75 -54t-64.5 -67.5t-33.5 -83t18.5 -100.5q10 -22 21.5 -47t27.5 -43.5t38 -28t53 -2t72.5 35.5t96.5 85q20 22 45 66.5t48.5 98.5t41.5 111.5
t24 105.5q2 21 6.5 53.5t9 70.5t9.5 79t9 79.5t6.5 71.5t3.5 55q0 18 2 37.5t5.5 37.5t9 33.5t12.5 25.5q4 6 12.5 11t18.5 7t18.5 1.5t11.5 -6.5q18 -37 25 -89t7 -111.5t-5.5 -121t-12 -116.5t-13 -99.5t-7.5 -69.5q7 9 27 20.5t47.5 18t58.5 5.5t61 -18zM751 128
q32 10 63 21.5t56 29.5t42 43.5t22 62.5q-3 7 -18.5 4.5t-37.5 -11t-47.5 -22.5t-48 -30t-40 -33t-22.5 -32q-5 -20 6 -26.5t25 -6.5zM1516 1232q21 -44 2.5 -103t-63.5 -125.5t-110 -136.5t-136.5 -137t-143.5 -126.5t-131 -104.5t-99 -72t-47 -28q-2 9 28 51.5t80 106.5
t114.5 141.5t132.5 156t134 151.5t118 126.5t85 82t36 17.5z" />
    <glyph glyph-name="kol" unicode="&#xfb90;&#xfee0;" horiz-adv-x="969" 
d="M1082 1127q26 19 51.5 41t52 37.5t54 21t57.5 -8.5q-8 -72 -39 -128t-71 -99t-81.5 -74t-71.5 -53q-16 -10 -48 -33t-71.5 -52.5t-82.5 -62t-80 -62t-64.5 -52t-35.5 -31.5q-4 -3 -17 -14t-31 -26l-39 -32.5t-39 -34.5t-31.5 -31t-16.5 -22q71 -3 108 -32.5t48 -72.5
t0 -93.5t-37.5 -94.5t-64.5 -76t-80 -38q-39 -6 -69 -1.5t-55.5 15.5t-50.5 26t-55 32q-15 -29 -32.5 -44t-43 -22.5t-62.5 -8.5t-91 -1v59.5t2 45.5q48 -1 84.5 11.5t63.5 39t46 67.5t34 97q4 16 11 56.5t17 95.5t22 120t26.5 130t30.5 124.5t34 104t37.5 68.5t39.5 18
q11 -5 14 -32.5t0 -70.5t-10 -96.5t-15.5 -109.5t-17.5 -111.5t-15.5 -102t-9.5 -80t0 -45.5q9 18 28 44t39 50q23 28 49 59q35 39 80 87.5t95.5 102t103.5 108.5t105.5 107t102 98.5t92.5 81.5zM525 298q-6 11 -23 10.5t-38.5 -8.5t-45 -23t-42.5 -32.5t-30.5 -37
t-9.5 -36.5q7 -52 26.5 -70.5t44 -13.5t50 28t44 54.5t26.5 66t-2 62.5z" />
    <glyph glyph-name="kala.001" unicode="&#xfb94;&#xfee0;&#xfe8e;" horiz-adv-x="1186" 
d="M786 850q10 29 40 66t69.5 75.5t82.5 75.5t79 66t59 47.5t22 19.5q13 -14 4.5 -36.5t-31 -50t-55.5 -58t-69 -60t-72 -56t-65 -47t-46.5 -32t-17.5 -10.5zM1243 1117q27 19 52.5 41.5t52 38t54.5 21t58 -7.5q-6 -49 -23.5 -91t-42.5 -78t-55 -65.5t-60.5 -54t-58 -44
t-47.5 -33.5q-76 -54 -144.5 -104t-132 -100t-123 -103t-116.5 -113q72 -2 109.5 -32t49 -73t-0.5 -94t-38.5 -96t-65 -77t-80.5 -39q-40 -5 -74 1.5t-65.5 19.5t-61 30t-59.5 34q-40 -23 -85 -37.5t-89.5 -15.5t-87 13t-76.5 47q-4 12 -1.5 26.5t9 27.5t17.5 23.5t23 14.5
q22 -39 51 -54t61 -12t64.5 21t60.5 46t49.5 63t32.5 72q5 16 12.5 56.5t17.5 96.5t22.5 121.5t26.5 131t30.5 125.5t34.5 105t37 69.5t40 18.5q11 -5 14 -33t0 -71t-10.5 -97t-16 -111t-17.5 -113t-16 -102.5t-10 -80.5t1 -46q9 17 28.5 43.5t39.5 51.5q23 29 49 59
q54 59 124 133.5t145.5 151.5t150.5 149t140 126zM705 310q-6 11 -23 11t-39 -8.5t-45.5 -23.5t-42.5 -33t-31 -37.5t-10 -36.5q7 -52 27 -71t44.5 -14t50 28.5t44.5 55t27 66.5t-2 63zM217 369q-11 -27 -24 -45.5t-26.5 -30.5t-27 -19t-25.5 -11q6 45 16 103.5t23 123
t29 131t34.5 127t40.5 111t47 83.5q9 11 24.5 9t24.5 -16q9 -23 5.5 -67t-15 -99t-28.5 -115.5t-35 -115.5t-35 -100t-28 -69z" />
    <glyph glyph-name="ka.001" unicode="&#xfb94;&#xfe8e;" horiz-adv-x="780" 
d="M445 842q10 29 39 69.5t67 84t79.5 86.5t76 77t56.5 56t21 23q13 -14 5 -38.5t-29.5 -55.5t-53 -65.5t-66.5 -68t-70 -64.5t-63 -54.5t-45 -37t-17 -12.5zM337 409q65 10 112 -13.5t71.5 -65.5t24 -95t-30.5 -103q-18 -27 -43.5 -48.5t-53.5 -37.5t-55 -25.5t-48 -12.5
q-48 0 -88.5 9.5t-70.5 28t-47.5 45.5t-20.5 61q-4 48 -3 120.5t6 157t14 174.5t21 174t26.5 155t31.5 118q11 27 26 26t18 -33q-1 -17 -2.5 -52t-3.5 -81.5t-4 -101t-3.5 -111.5t-2 -112.5t-0.5 -103.5t1.5 -85.5t4.5 -57.5q6 6 21.5 17t33.5 22t36 20t29 11zM223 145
q31 -15 69 -6t70.5 33t53.5 58t18 69q-8 11 -30 7t-49.5 -17t-55.5 -33t-49 -40.5t-30 -39.5t3 -31zM995 1245q21 -44 2.5 -103t-63.5 -125.5t-110 -136.5t-136.5 -137t-143.5 -126.5t-131 -104.5t-99 -72t-47 -28q-2 9 28 51.5t80 106.5t114.5 141.5t132.5 156t134 151.5
t118 126.5t85 82t36 17.5z" />
    <glyph glyph-name="kal.001" unicode="&#xfb94;&#xfede;" horiz-adv-x="1339" 
d="M1045 930q10 29 34.5 61t55.5 62.5t64.5 58t61 49t45 34.5t16.5 14q17 -19 3 -47t-45 -59.5t-71.5 -62.5t-77 -56t-62 -40t-24.5 -14zM952 374q38 -21 57 -56.5t19 -76t-17.5 -81.5t-51.5 -73t-83 -50t-112 -13q-11 0 -24.5 3.5t-27 9t-24.5 11t-16 10.5q-8 -7 -17 -19
t-28 -39q-4 -5 -19.5 -22.5t-39.5 -40.5t-55 -49.5t-65 -50t-70 -42.5t-70 -27q-56 -13 -97.5 -1t-69.5 34.5t-43.5 49t-21.5 41.5q-21 55 -27 108t-4 96.5t9.5 74t14.5 41.5q21 31 47.5 56t54.5 44t57 33t56 24q63 23 129 30q-5 -15 -32.5 -34t-64 -43t-75 -54t-64.5 -67.5
t-33.5 -83t18.5 -100.5q10 -22 21.5 -47t27.5 -43.5t38 -28t53 -2t72.5 35.5t96.5 85q20 22 45 66.5t48.5 98.5t41.5 111.5t24 105.5q2 21 6.5 53.5t9 70.5t9.5 79t9 79.5t6.5 71.5t3.5 55q0 18 2 37.5t5.5 37.5t9 33.5t12.5 25.5q4 6 12.5 11t18.5 7t18.5 1.5t11.5 -6.5
q18 -37 25 -89t7 -111.5t-5.5 -121t-12 -116.5t-13 -99.5t-7.5 -69.5q7 9 27 20.5t47.5 18t58.5 5.5t61 -18zM751 128q32 10 63 21.5t56 29.5t42 43.5t22 62.5q-3 7 -18.5 4.5t-37.5 -11t-47.5 -22.5t-48 -30t-40 -33t-22.5 -32q-5 -20 6 -26.5t25 -6.5zM1516 1232
q21 -44 2.5 -103t-63.5 -125.5t-110 -136.5t-136.5 -137t-143.5 -126.5t-131 -104.5t-99 -72t-47 -28q-2 9 28 51.5t80 106.5t114.5 141.5t132.5 156t134 151.5t118 126.5t85 82t36 17.5z" />
    <glyph glyph-name="kol.001" unicode="&#xfb94;&#xfee0;" horiz-adv-x="1054" 
d="M681 883q10 29 39.5 66.5t67.5 76t80 76t77 67t57.5 48t21.5 19.5q13 -14 5 -37t-30 -50.5t-54 -58t-67.5 -60.5t-70.5 -57t-63.5 -47t-45.5 -32t-17 -11zM1082 1127q26 19 51.5 41t52 37.5t54 21t57.5 -8.5q-8 -72 -39 -128t-71 -99t-81.5 -74t-71.5 -53
q-16 -10 -48 -33t-71.5 -52.5t-82.5 -62t-80 -62t-64.5 -52t-35.5 -31.5q-4 -3 -17 -14t-31 -26l-39 -32.5t-39 -34.5t-31.5 -31t-16.5 -22q71 -3 108 -32.5t48 -72.5t0 -93.5t-37.5 -94.5t-64.5 -76t-80 -38q-39 -6 -69 -1.5t-55.5 15.5t-50.5 26t-55 32q-15 -29 -32.5 -44
t-43 -22.5t-62.5 -8.5t-91 -1v59.5t2 45.5q48 -1 84.5 11.5t63.5 39t46 67.5t34 97q4 16 11 56.5t17 95.5t22 120t26.5 130t30.5 124.5t34 104t37.5 68.5t39.5 18q11 -5 14 -32.5t0 -70.5t-10 -96.5t-15.5 -109.5t-17.5 -111.5t-15.5 -102t-9.5 -80t0 -45.5q9 18 28 44
t39 50q23 28 49 59q35 39 80 87.5t95.5 102t103.5 108.5t105.5 107t102 98.5t92.5 81.5zM525 298q-6 11 -23 10.5t-38.5 -8.5t-45 -23t-42.5 -32.5t-30.5 -37t-9.5 -36.5q7 -52 26.5 -70.5t44 -13.5t50 28t44 54.5t26.5 66t-2 62.5z" />
    <glyph glyph-name="ckala" unicode="&#xfb91;&#xfee0;&#xfe8e;" horiz-adv-x="914" 
d="M915 105q3 0 9 -1t12 -6.5t11 -15.5t6 -28q1 -20 -4.5 -31t-13.5 -16q-9 -6 -20 -7q-7 0 -18 1t-25.5 5.5t-32 15t-37.5 30.5q-13 12 -20 28.5t-12 31.5q-5 18 -8 35l58 133q-4 -49 5 -88q3 -17 9.5 -32.5t17.5 -27.5t26.5 -19.5t36.5 -7.5zM786 850q10 29 40 66
t69.5 75.5t82.5 75.5t79 66t59 47.5t22 19.5q13 -14 4.5 -36.5t-31 -50t-55.5 -58t-69 -60t-72 -56t-65 -47t-46.5 -32t-17.5 -10.5zM1243 1117q27 19 52.5 41.5t52 38t54.5 21t58 -7.5q-6 -49 -23.5 -91t-42.5 -78t-55 -65.5t-60.5 -54t-58 -44t-47.5 -33.5
q-76 -54 -144.5 -104t-132 -100t-123 -103t-116.5 -113q72 -2 109.5 -32t49 -73t-0.5 -94t-38.5 -96t-65 -77t-80.5 -39q-40 -5 -74 1.5t-65.5 19.5t-61 30t-59.5 34q-40 -23 -85 -37.5t-89.5 -15.5t-87 13t-76.5 47q-4 12 -1.5 26.5t9 27.5t17.5 23.5t23 14.5
q22 -39 51 -54t61 -12t64.5 21t60.5 46t49.5 63t32.5 72q5 16 12.5 56.5t17.5 96.5t22.5 121.5t26.5 131t30.5 125.5t34.5 105t37 69.5t40 18.5q11 -5 14 -33t0 -71t-10.5 -97t-16 -111t-17.5 -113t-16 -102.5t-10 -80.5t1 -46q9 17 28.5 43.5t39.5 51.5q23 29 49 59
q54 59 124 133.5t145.5 151.5t150.5 149t140 126zM705 310q-6 11 -23 11t-39 -8.5t-45.5 -23.5t-42.5 -33t-31 -37.5t-10 -36.5q7 -52 27 -71t44.5 -14t50 28.5t44.5 55t27 66.5t-2 63zM217 369q-11 -27 -24 -45.5t-26.5 -30.5t-27 -19t-25.5 -11q6 45 16 103.5t23 123
t29 131t34.5 127t40.5 111t47 83.5q9 11 24.5 9t24.5 -16q9 -23 5.5 -67t-15 -99t-28.5 -115.5t-35 -115.5t-35 -100t-28 -69z" />
    <glyph glyph-name="cka" unicode="&#xfb91;&#xfe8e;" horiz-adv-x="634" 
d="M633 115q3 0 9.5 -1t13.5 -6.5t12.5 -17t6.5 -31.5q1 -23 -5.5 -35t-14.5 -17q-10 -6 -22 -7q-44 0 -83 22t-61 83l55 149q1 -41 11 -73q4 -14 10.5 -26.5t16 -22t22 -14.5t29.5 -3zM337 409q65 10 112 -13.5t71.5 -65.5t24 -95t-30.5 -103q-18 -27 -43.5 -48.5
t-53.5 -37.5t-55 -25.5t-48 -12.5q-48 0 -88.5 9.5t-70.5 28t-47.5 45.5t-20.5 61q-4 48 -3 120.5t6 157t14 174.5t21 174t26.5 155t31.5 118q11 27 26 26t18 -33q-1 -17 -2.5 -52t-3.5 -81.5t-4 -101t-3.5 -111.5t-2 -112.5t-0.5 -103.5t1.5 -85.5t4.5 -57.5q6 6 21.5 17
t33.5 22t36 20t29 11zM223 145q31 -15 69 -6t70.5 33t53.5 58t18 69q-8 11 -30 7t-49.5 -17t-55.5 -33t-49 -40.5t-30 -39.5t3 -31zM995 1245q21 -44 2.5 -103t-63.5 -125.5t-110 -136.5t-136.5 -137t-143.5 -126.5t-131 -104.5t-99 -72t-47 -28q-2 9 28 51.5t80 106.5
t114.5 141.5t132.5 156t134 151.5t118 126.5t85 82t36 17.5z" />
    <glyph glyph-name="ckol" unicode="&#xfb91;&#xfede;" horiz-adv-x="1105" 
d="M1105 105q3 0 9 -1t12 -6.5t11 -15.5t6 -28q1 -20 -4.5 -31t-13.5 -16q-9 -6 -20 -7q-7 0 -16.5 1t-22 5.5t-28.5 15t-36 30.5q-13 12 -21.5 28.5t-14.5 31.5q-7 18 -11 35l58 133q1 -49 11 -88q8 -33 27 -60t54 -27zM939 374q38 -21 57 -56.5t19 -76t-17.5 -81.5
t-51.5 -73t-83 -50t-112 -13q-11 0 -24.5 3.5t-27 9t-24.5 11t-16 10.5q-8 -7 -17 -19t-28 -39q-4 -5 -19.5 -22.5t-39.5 -40.5t-55 -49.5t-65 -50t-70 -42.5t-70 -27q-56 -13 -97.5 -1t-69.5 34.5t-43.5 49t-21.5 41.5q-21 55 -27 108t-4 96.5t9.5 74t14.5 41.5
q21 31 47.5 56t54.5 44t57 33t56 24q63 23 129 30q-5 -15 -32.5 -34t-64 -43t-75 -54t-64.5 -67.5t-33.5 -83t18.5 -100.5q10 -22 21.5 -47t27.5 -43.5t38 -28t53 -2t72.5 35.5t96.5 85q20 22 45 66.5t48.5 98.5t41.5 111.5t24 105.5q2 21 6.5 53.5t9 70.5t9.5 79t9 79.5
t6.5 71.5t3.5 55q0 18 2 37.5t5.5 37.5t9 33.5t12.5 25.5q4 6 12.5 11t18.5 7t18.5 1.5t11.5 -6.5q18 -37 25 -89t7 -111.5t-5.5 -121t-12 -116.5t-13 -99.5t-7.5 -69.5q7 9 27 20.5t47.5 18t58.5 5.5t61 -18zM738 128q32 10 63 21.5t56 29.5t42 43.5t22 62.5
q-3 7 -18.5 4.5t-37.5 -11t-47.5 -22.5t-48 -30t-40 -33t-22.5 -32q-5 -20 6 -26.5t25 -6.5zM1503 1232q21 -44 2.5 -103t-63.5 -125.5t-110 -136.5t-136.5 -137t-143.5 -126.5t-131 -104.5t-99 -72t-47 -28q-2 9 28 51.5t80 106.5t114.5 141.5t132.5 156t134 151.5
t118 126.5t85 82t36 17.5z" />
    <glyph glyph-name="ckal" unicode="&#xfb91;&#xfee0;" horiz-adv-x="733" 
d="M734 105q3 0 9 -1t12 -6.5t11 -15.5t6 -28q1 -20 -4.5 -31t-13.5 -16q-9 -6 -20 -7q-7 0 -16.5 1t-22 5.5t-28.5 15t-36 30.5q-13 12 -21.5 28.5t-14.5 31.5q-7 18 -11 35l58 133q5 -49 16 -88q10 -33 28 -60t48 -27zM1084 1127q26 19 51.5 41t52 37.5t54 21t57.5 -8.5
q-8 -72 -39 -128t-71 -99t-81.5 -74t-71.5 -53q-15 -10 -47.5 -33t-72 -52.5t-82.5 -62t-80 -62t-64.5 -52t-35.5 -31.5q-3 -3 -16.5 -14t-31.5 -26l-39 -32.5t-39 -34.5t-31.5 -31t-16.5 -22q71 -3 108 -32.5t48 -72.5t0 -93.5t-37.5 -94.5t-64.5 -76t-80 -38
q-39 -6 -69 -1.5t-55.5 15.5t-50.5 26t-55 32q-15 -29 -32.5 -44t-43 -22.5t-62.5 -8.5t-91 -1v59.5t2 45.5q48 -1 84.5 11.5t63.5 39t46 67.5t34 97q4 16 11 56.5t17 95.5t22 120t26.5 130t30.5 124.5t34 104t37.5 68.5t39.5 18q11 -5 14 -32.5t0 -70.5t-10 -96.5
t-15.5 -109.5t-17.5 -111.5t-15.5 -102t-9.5 -80t0 -45.5q9 18 28 44t39 50q23 28 49 59q35 39 80 87.5t95.5 102t103.5 108.5t105.5 107t102 98.5t92.5 81.5zM527 298q-6 11 -23 10.5t-38.5 -8.5t-45 -23t-42.5 -32.5t-30.5 -37t-9.5 -36.5q7 -52 26.5 -70.5t44 -13.5
t50 28t44 54.5t26.5 66t-2 62.5z" />
    <glyph glyph-name="cgala" unicode="&#xfb95;&#xfee0;&#xfe8e;" horiz-adv-x="903" 
d="M809 900q10 29 41 65.5t71.5 74.5t85 74t81.5 64.5t61 46.5t23 19q13 -14 4 -36.5t-32 -49.5t-57 -57t-71.5 -59t-74.5 -55t-66.5 -45.5t-47.5 -31t-18 -10.5zM1210 1117q27 19 52.5 41.5t52 38t54.5 21t58 -7.5q-6 -49 -23.5 -91t-42.5 -78t-55 -65.5t-60.5 -54t-58 -44
t-47.5 -33.5q-76 -54 -144.5 -104t-132 -100t-123 -103t-116.5 -113q72 -2 109.5 -32t49 -73t-0.5 -94t-38.5 -96t-65 -77t-80.5 -39q-40 -5 -74 1.5t-65.5 19.5t-61 30t-59.5 34q-40 -23 -85 -37.5t-89.5 -15.5t-87 13t-76.5 47q-4 12 -1.5 26.5t9 27.5t17.5 23.5t23 14.5
q22 -39 51 -54t61 -12t64.5 21t60.5 46t49.5 63t32.5 72q5 16 12.5 56.5t17.5 96.5t22.5 121.5t26.5 131t30.5 125.5t34.5 105t37 69.5t40 18.5q11 -5 14 -33t0 -71t-10.5 -97t-16 -111t-17.5 -113t-16 -102.5t-10 -80.5t1 -46q9 17 28.5 43.5t39.5 51.5q23 29 49 59
q54 59 124 133.5t145.5 151.5t150.5 149t140 126zM672 310q-6 11 -23 11t-39 -8.5t-45.5 -23.5t-42.5 -33t-31 -37.5t-10 -36.5q7 -52 27 -71t44.5 -14t50 28.5t44.5 55t27 66.5t-2 63zM184 369q-11 -27 -24 -45.5t-26.5 -30.5t-27 -19t-25.5 -11q7 45 16.5 103.5t22.5 123
t29 131t34.5 127t40.5 111t47 83.5q9 11 24.5 9t24.5 -16q9 -23 5.5 -67t-15 -99t-28.5 -115.5t-35 -115.5t-35 -100t-28 -69zM903 105q3 0 9 -1t12 -6.5t11 -15.5t6 -28q1 -20 -4.5 -31t-13.5 -16q-9 -6 -20 -7q-7 0 -20.5 1t-31 5.5t-37.5 15t-40 30.5q-13 12 -21.5 28.5
t-14.5 31.5q-7 18 -11 35l58 133q3 -49 16 -88q6 -17 14.5 -32.5t21 -27.5t29 -19.5t37.5 -7.5z" />
    <glyph glyph-name="cga" unicode="&#xfb95;&#xfe8e;" horiz-adv-x="657" 
d="M377 806q10 29 46.5 73.5t85.5 94t103.5 99.5t100.5 90t75.5 66t28.5 27q13 -14 1 -41t-41 -61.5t-69.5 -74t-85 -78t-88.5 -74.5t-79 -63t-56.5 -43t-21.5 -15zM657 105q3 0 9 -1t12 -6.5t11 -15.5t6 -28q1 -20 -4.5 -31t-13.5 -16q-9 -6 -20 -7q-7 0 -20.5 1t-31 5.5
t-37.5 15t-40 30.5q-13 12 -21.5 28.5t-14.5 31.5q-7 18 -11 35l58 133q3 -49 16 -88q6 -17 14.5 -32.5t21 -27.5t29 -19.5t37.5 -7.5zM337 409q65 10 112 -13.5t71.5 -65.5t24 -95t-30.5 -103q-18 -27 -43.5 -48.5t-53.5 -37.5t-55 -25.5t-48 -12.5q-48 0 -88.5 9.5
t-70.5 28t-47.5 45.5t-20.5 61q-4 48 -3 120.5t6 157t14 174.5t21 174t26.5 155t31.5 118q11 27 26 26t18 -33q-1 -17 -2.5 -52t-3.5 -81.5t-4 -101t-3.5 -111.5t-2 -112.5t-0.5 -103.5t1.5 -85.5t4.5 -57.5q6 6 21.5 17t33.5 22t36 20t29 11zM223 145q31 -15 69 -6t70.5 33
t53.5 58t18 69q-8 11 -30 7t-49.5 -17t-55.5 -33t-49 -40.5t-30 -39.5t3 -31zM995 1245q21 -44 2.5 -103t-63.5 -125.5t-110 -136.5t-136.5 -137t-143.5 -126.5t-131 -104.5t-99 -72t-47 -28q-2 9 28 51.5t80 106.5t114.5 141.5t132.5 156t134 151.5t118 126.5t85 82
t36 17.5z" />
    <glyph glyph-name="cgol" unicode="&#xfb95;&#xfede;" horiz-adv-x="1130" 
d="M973 839q18 39 48.5 82t65 84t69 78.5t62.5 65.5l45.5 45.5t16.5 18.5q14 -17 8 -42t-25 -54.5t-48 -61.5t-61.5 -63.5t-64.5 -59.5t-58 -49t-42 -33t-16 -11zM1131 105q3 0 9 -1t12 -6.5t11 -15.5t6 -28q1 -20 -4.5 -31t-13.5 -16q-9 -6 -20 -7q-7 0 -20.5 1t-31 5.5
t-37.5 15t-40 30.5q-13 12 -21.5 28.5t-14.5 31.5q-7 18 -11 35l58 133q3 -49 16 -88q6 -17 14.5 -32.5t21 -27.5t29 -19.5t37.5 -7.5zM939 374q38 -21 57 -56.5t19 -76t-17.5 -81.5t-51.5 -73t-83 -50t-112 -13q-11 0 -24.5 3.5t-27 9t-24.5 11t-16 10.5q-8 -7 -17 -19
t-28 -39q-4 -5 -19.5 -22.5t-39.5 -40.5t-55 -49.5t-65 -50t-70 -42.5t-70 -27q-56 -13 -97.5 -1t-69.5 34.5t-43.5 49t-21.5 41.5q-21 55 -27 108t-4 96.5t9.5 74t14.5 41.5q21 31 47.5 56t54.5 44t57 33t56 24q63 23 129 30q-5 -15 -32.5 -34t-64 -43t-75 -54t-64.5 -67.5
t-33.5 -83t18.5 -100.5q10 -22 21.5 -47t27.5 -43.5t38 -28t53 -2t72.5 35.5t96.5 85q20 22 45 66.5t48.5 98.5t41.5 111.5t24 105.5q2 21 6.5 53.5t9 70.5t9.5 79t9 79.5t6.5 71.5t3.5 55q0 18 2 37.5t5.5 37.5t9 33.5t12.5 25.5q4 6 12.5 11t18.5 7t18.5 1.5t11.5 -6.5
q18 -37 25 -89t7 -111.5t-5.5 -121t-12 -116.5t-13 -99.5t-7.5 -69.5q7 9 27 20.5t47.5 18t58.5 5.5t61 -18zM738 128q32 10 63 21.5t56 29.5t42 43.5t22 62.5q-3 7 -18.5 4.5t-37.5 -11t-47.5 -22.5t-48 -30t-40 -33t-22.5 -32q-5 -20 6 -26.5t25 -6.5zM1503 1232
q21 -44 2.5 -103t-63.5 -125.5t-110 -136.5t-136.5 -137t-143.5 -126.5t-131 -104.5t-99 -72t-47 -28q-2 9 28 51.5t80 106.5t114.5 141.5t132.5 156t134 151.5t118 126.5t85 82t36 17.5z" />
    <glyph glyph-name="cgal" unicode="&#xfb95;&#xfee0;" horiz-adv-x="756" 
d="M632 826q11 32 46 79t82 97.5t98.5 100t96 88t75 61t34.5 18.5q13 -14 1 -40.5t-40 -61t-68 -73t-84 -77t-87 -73.5t-77.5 -62t-55.5 -42.5t-21 -14.5zM756 105q3 0 9 -1t12 -6.5t11 -15.5t6 -28q1 -20 -4.5 -31t-13.5 -16q-9 -6 -20 -7q-7 0 -20.5 1t-31 5.5t-37.5 15
t-40 30.5q-13 12 -21.5 28.5t-14.5 31.5q-7 18 -11 35l58 133q3 -49 16 -88q6 -17 14.5 -32.5t21 -27.5t29 -19.5t37.5 -7.5zM1080 1127q26 19 51.5 41t52 37.5t54 21t57.5 -8.5q-8 -72 -39 -128t-71 -99t-81.5 -74t-71.5 -53q-15 -10 -47.5 -33t-72 -52.5t-82.5 -62
t-80 -62t-64.5 -52t-35.5 -31.5q-3 -3 -16.5 -14t-31.5 -26l-39 -32.5t-39 -34.5t-31.5 -31t-16.5 -22q71 -3 108 -32.5t48 -72.5t0 -93.5t-37.5 -94.5t-64.5 -76t-80 -38q-39 -6 -69 -1.5t-55.5 15.5t-50.5 26t-55 32q-15 -29 -32.5 -44t-43 -22.5t-62.5 -8.5t-91 -1v59.5
t2 45.5q48 -1 84.5 11.5t63.5 39t46 67.5t34 97q4 16 11 56.5t17 95.5t22 120t26.5 130t30.5 124.5t34 104t37.5 68.5t39.5 18q11 -5 14 -32.5t0 -70.5t-10 -96.5t-15.5 -109.5t-17.5 -111.5t-15.5 -102t-9.5 -80t0 -45.5q9 18 28 44t39 50q23 28 49 59q36 39 80.5 87.5
t95 102t103.5 108.5t105.5 107t102 98.5t92.5 81.5zM523 298q-6 11 -23 10.5t-38.5 -8.5t-45 -23t-42.5 -32.5t-30.5 -37t-9.5 -36.5q7 -52 26.5 -70.5t44 -13.5t50 28t44 54.5t26.5 66t-2 62.5z" />
    <glyph glyph-name="notdef004" unicode="&#x62f;&#x648;&#xfeb3;&#xfe98;&#xfe96;&#x20;&#x62f;&#x627;&#x631;&#x645;&#x20;&#x627;&#xfea3;&#xfeb4;&#xfe8e;&#x646;" horiz-adv-x="1355" 
 />
    <glyph glyph-name="notdef003" unicode="&#xfb59;&#xfb59;" horiz-adv-x="541" 
d="M-30 48q0 21 4.5 33t10.5 17q6 6 15 7q43 0 72 14t48 36.5t30 49.5t18.5 53t13 47.5t14.5 33.5q22 13 36 6t22 -26.5t10 -47t0 -54.5t-6.5 -49.5t-10.5 -32.5q-6 -9 -3 -15t11 -9t20.5 -4.5t25.5 -1.5q6 -1 10 -6t7.5 -15.5t3.5 -29.5q0 -20 -3.5 -31t-7.5 -16
q-4 -6 -10 -7q-37 1 -67 9.5t-41 41.5q-7 -7 -20.5 -16t-36 -17.5t-56 -13.5t-80.5 -4q-9 1 -15 6t-10.5 14.5t-4.5 27.5zM255 48q0 21 4.5 33t10.5 17q6 6 15 7q47 0 73 16t39 41t16.5 54t5 55t4 45t14.5 23q24 10 40 -9t24.5 -49.5t10 -64.5t-3.5 -54q-5 -21 1 -39t32 -18
q6 -1 10 -6t7.5 -15.5t3.5 -29.5q0 -20 -3.5 -31t-7.5 -16q-4 -6 -10 -7q-12 0 -26 2t-26.5 7.5t-22.5 15.5t-16 26q-7 -7 -20 -15.5t-33.5 -16.5t-48 -13.5t-63.5 -5.5q-9 1 -15 6t-10.5 14.5t-4.5 27.5zM427 -410q-14 -11 -28.5 -10.5t-26.5 9t-19.5 24t-6.5 33.5
q7 22 27 25.5t38 -6.5t25.5 -30t-9.5 -45zM536 -187q0 -16 -15 -24t-34.5 -14t-38.5 -14t-26 -23q-29 -7 -62 -8.5t-60 6.5t-42 26.5t-9 50.5q73 15 145.5 17t141.5 -17zM168 -326q-14 -11 -28.5 -10.5t-26.5 9t-19.5 24t-6.5 33.5q7 22 27 25.5t38 -6.5t25.5 -30t-9.5 -45z
M277 -103q0 -16 -15 -24t-34.5 -14t-38.5 -14t-26 -23q-29 -7 -62 -8.5t-60 6.5t-42 26.5t-9 50.5q73 15 145.5 17t141.5 -17z" />
    <glyph glyph-name="notdef002" unicode="&#xfe98;&#xfe98;" horiz-adv-x="541" 
d="M-30 48q0 21 4.5 33t10.5 17q6 6 15 7q43 0 72 14t48 36.5t30 49.5t18.5 53t13 47.5t14.5 33.5q22 13 36 6t22 -26.5t10 -47t0 -54.5t-6.5 -49.5t-10.5 -32.5q-6 -9 -3 -15t11 -9t20.5 -4.5t25.5 -1.5q6 -1 10 -6t7.5 -15.5t3.5 -29.5q0 -20 -3.5 -31t-7.5 -16
q-4 -6 -10 -7q-37 1 -67 9.5t-41 41.5q-7 -7 -20.5 -16t-36 -17.5t-56 -13.5t-80.5 -4q-9 1 -15 6t-10.5 14.5t-4.5 27.5zM255 48q0 21 4.5 33t10.5 17q6 6 15 7q47 0 73 16t39 41t16.5 54t5 55t4 45t14.5 23q24 10 40 -9t24.5 -49.5t10 -64.5t-3.5 -54q-5 -21 1 -39t32 -18
q6 -1 10 -6t7.5 -15.5t3.5 -29.5q0 -20 -3.5 -31t-7.5 -16q-4 -6 -10 -7q-12 0 -26 2t-26.5 7.5t-22.5 15.5t-16 26q-7 -7 -20 -15.5t-33.5 -16.5t-48 -13.5t-63.5 -5.5q-9 1 -15 6t-10.5 14.5t-4.5 27.5zM313 569q0 -16 -16.5 -24.5t-37.5 -15t-41 -15t-27 -24.5
q-31 -8 -65.5 -9t-62.5 7t-43.5 27.5t-8.5 53.5q77 16 153.5 18t148.5 -18zM537 476q0 -16 -15 -24.5t-35 -15t-39 -15t-26 -24.5q-31 -8 -65.5 -9t-62.5 7t-43.5 27.5t-8.5 53.5q77 16 150 18t145 -18z" />
    <glyph glyph-name="notdef001" unicode="&#xfe9c;&#xfe9c;" horiz-adv-x="542" 
d="M-30 48q0 21 4.5 33t10.5 17q6 6 15 7q43 0 72 14t48 36.5t30 49.5t18.5 53t13 47.5t14.5 33.5q22 13 36 6t22 -26.5t10 -47t0 -54.5t-6.5 -49.5t-10.5 -32.5q-6 -9 -3 -15t11 -9t20.5 -4.5t25.5 -1.5q6 -1 10 -6t7.5 -15.5t3.5 -29.5q0 -20 -3.5 -31t-7.5 -16
q-4 -6 -10 -7q-37 1 -67 9.5t-41 41.5q-7 -7 -20.5 -16t-36 -17.5t-56 -13.5t-80.5 -4q-9 1 -15 6t-10.5 14.5t-4.5 27.5zM255 48q0 21 4.5 33t10.5 17q6 6 15 7q47 0 73 16t39 41t16.5 54t5 55t4 45t14.5 23q24 10 40 -9t24.5 -49.5t10 -64.5t-3.5 -54q-5 -21 1 -39t32 -18
q6 -1 10 -6t7.5 -15.5t3.5 -29.5q0 -20 -3.5 -31t-7.5 -16q-4 -6 -10 -7q-12 0 -26 2t-26.5 7.5t-22.5 15.5t-16 26q-7 -7 -20 -15.5t-33.5 -16.5t-48 -13.5t-63.5 -5.5q-9 1 -15 6t-10.5 14.5t-4.5 27.5zM167 649q-17 -11 -32.5 -10t-27 9.5t-17.5 24t-4 33.5
q6 23 25.5 26.5t37 -7t26 -31t-7.5 -45.5zM288 546q1 -16 -14 -23.5t-35.5 -14t-39.5 -14t-26 -23.5q-29 -7 -62 -8.5t-59.5 6.5t-41 26.5t-6.5 50.5q73 15 145.5 17t138.5 -17zM420 574q-17 -11 -32.5 -10t-27 9.5t-17.5 24t-4 33.5q6 23 25.5 26.5t37 -7t26 -31
t-7.5 -45.5zM541 471q1 -16 -14 -23.5t-35.5 -14t-39.5 -14t-26 -23.5q-29 -7 -62 -8.5t-59.5 6.5t-41 26.5t-6.5 50.5q73 15 145.5 17t138.5 -17z" />
    <glyph glyph-name="notdef005" unicode="&#xfbff;&#xfbff;" horiz-adv-x="541" 
d="M-30 48q0 21 4.5 33t10.5 17q6 6 15 7q43 0 72 14t48 36.5t30 49.5t18.5 53t13 47.5t14.5 33.5q22 13 36 6t22 -26.5t10 -47t0 -54.5t-6.5 -49.5t-10.5 -32.5q-6 -9 -3 -15t11 -9t20.5 -4.5t25.5 -1.5q6 -1 10 -6t7.5 -15.5t3.5 -29.5q0 -20 -3.5 -31t-7.5 -16
q-4 -6 -10 -7q-37 1 -67 9.5t-41 41.5q-7 -7 -20.5 -16t-36 -17.5t-56 -13.5t-80.5 -4q-9 1 -15 6t-10.5 14.5t-4.5 27.5zM255 48q0 21 4.5 33t10.5 17q6 6 15 7q47 0 73 16t39 41t16.5 54t5 55t4 45t14.5 23q24 10 40 -9t24.5 -49.5t10 -64.5t-3.5 -54q-5 -21 1 -39t32 -18
q6 -1 10 -6t7.5 -15.5t3.5 -29.5q0 -20 -3.5 -31t-7.5 -16q-4 -6 -10 -7q-12 0 -26 2t-26.5 7.5t-22.5 15.5t-16 26q-7 -7 -20 -15.5t-33.5 -16.5t-48 -13.5t-63.5 -5.5q-9 1 -15 6t-10.5 14.5t-4.5 27.5zM290 -89q0 -16 -15 -24t-34.5 -14t-38.5 -14t-26 -23
q-29 -7 -62 -8.5t-60 6.5t-42 26.5t-9 50.5q73 15 145.5 17t141.5 -17zM518 -200q0 -16 -15 -24t-34.5 -14t-38.5 -14t-26 -23q-29 -7 -62 -8.5t-60 6.5t-42 26.5t-9 50.5q73 15 145.5 17t141.5 -17z" />
    <glyph glyph-name="uni0622" unicode="&#x622;" horiz-adv-x="331" arabic-form="isolated" 
d="M233 785q32 -22 48 -65t19 -98.5t-5.5 -121t-24.5 -134t-38.5 -135.5t-47.5 -126.5t-51 -107.5t-50 -77q-5 0 -3 35.5t8 94t14 133.5t16 155q6 55 13.5 107t16.5 103.5t21 104t28 108.5q7 23 13.5 27t22.5 -3zM523 1035q15 -21 21 -47.5t2 -53t-19 -49t-42 -35t-67 -11.5
t-94 22q-29 9 -62 -1t-66 -30t-63.5 -46t-55 -48.5t-41 -37.5t-21.5 -14q-2 17 8 47.5t32.5 65t57 69.5t81 61.5t104 40t126.5 5.5q19 -2 32.5 13t24 31t20.5 24.5t22 -6.5z" />
    <glyph glyph-name="uniFE82" unicode="&#x622;" horiz-adv-x="190" arabic-form="final" 
d="M182 869q0 -2 1.5 -17.5t3 -40t3 -54.5t1.5 -59t-1 -54.5t-5 -41.5q-4 -32 -13 -81.5t-17.5 -104.5t-14.5 -110.5t-4.5 -100t14 -72.5t41.5 -28q1 0 6 -0.5t10 -5t9.5 -15t4.5 -30.5q0 -18 -5 -29t-10 -16q-7 -7 -15 -9q-6 0 -21 1.5t-33.5 11t-38 28.5t-34.5 54.5
t-23 89.5t-3 133q3 61 11 125.5t19.5 125.5t25.5 115.5t29 95.5t30 65t29 24zM465 1128q15 -21 21 -47.5t2 -53t-19 -49t-42 -35t-67 -11.5t-94 22q-29 9 -62 -1t-66 -30t-63.5 -46t-55 -48.5t-41 -37.5t-21.5 -14q-3 17 7.5 47.5t33 65t57 69.5t81 61.5t104 40t126.5 5.5
q19 -2 32.5 13t24 31t20.5 24.5t22 -6.5z" />
    <glyph glyph-name="uni0623" unicode="&#x623;" horiz-adv-x="325" arabic-form="isolated" 
d="M191 785q32 -22 48 -65t19 -98.5t-5.5 -121t-24.5 -134t-38.5 -135.5t-47.5 -126.5t-51 -107.5t-50 -77q-5 0 -3 35.5t8 94t14 133.5t16 155q6 55 13.5 107t16.5 103.5t21 104t28 108.5q7 23 13.5 27t22.5 -3zM136 1032q3 14 21 29t40.5 24t45 8.5t33.5 -17.5
q1 -5 -11.5 -17t-25 -28t-19.5 -33t4 -30q11 -7 25.5 -7.5t31 2.5t32.5 7.5t30 9.5q6 -2 8.5 -11t2.5 -19t-2.5 -18.5t-8.5 -9.5q-41 -12 -86.5 -34.5t-85 -45.5t-68.5 -41.5t-38 -21.5q-2 21 15 43.5t37 41t37.5 31.5t17.5 15q0 6 -9 15.5t-18 24t-13.5 35t4.5 47.5z" />
    <glyph glyph-name="uniFE84" unicode="&#x623;" horiz-adv-x="191" arabic-form="final" 
d="M182 879q0 -2 1.5 -17.5t3 -40t3 -54.5t1.5 -59t-1 -54.5t-5 -41.5q-4 -32 -13 -82t-17.5 -106.5t-14.5 -113.5t-4.5 -102.5t14 -74t41.5 -28.5q1 0 6 -0.5t10 -5t9.5 -15t4.5 -30.5q0 -18 -5 -29t-10 -16q-7 -7 -15 -9q-6 0 -21 1.5t-33.5 11t-38 28.5t-34.5 54.5
t-23 89.5t-3 133q3 61 11 126t19.5 127.5t25.5 118t29 98t30 67t29 24.5zM118 1137q3 14 21 29t40.5 24t45 8.5t33.5 -17.5q1 -5 -11.5 -17t-25 -28t-19.5 -33t4 -30q11 -7 25.5 -7.5t31 2.5t32.5 7.5t30 9.5q6 -2 8.5 -11t2.5 -19t-2.5 -18.5t-8.5 -9.5
q-41 -12 -86.5 -34.5t-85 -45.5t-68.5 -41.5t-38 -21.5q-2 21 15 43.5t37 41t37.5 31.5t17.5 15q0 6 -9 15.5t-18 24t-13.5 35t4.5 47.5z" />
    <glyph glyph-name="uni0624" unicode="&#x624;" horiz-adv-x="420" arabic-form="isolated" 
d="M-103 -175q30 26 65 47t72 40.5t73 41t66 49.5q-13 8 -30.5 11.5t-29.5 16.5q-11 19 -14.5 38.5t-1.5 39t8.5 37.5t15.5 33q13 21 47.5 42t74 32t75 5t50.5 -39q6 -13 9.5 -35.5t4 -47.5t-1 -49t-5.5 -39q-11 -38 -44 -79t-76 -76.5t-91 -59.5t-90 -27q-26 -2 -44.5 1.5
t-37 8t-40.5 8t-55 1.5zM179 84q15 -21 37.5 -23t42.5 9.5t32.5 34t6.5 50.5q-42 -6 -74.5 -20t-44.5 -51zM176 502q3 13 21.5 28.5t41 24.5t44.5 8.5t33 -18.5q1 -5 -11 -17t-24.5 -28t-19.5 -33t4 -30q11 -7 26 -7.5t31 2.5t32 7.5t30 9.5q6 -2 9 -10.5t3 -19t-3 -19
t-9 -9.5q-41 -12 -86 -35t-85 -46t-69 -41t-39 -21q0 21 17 44t37.5 41.5t37.5 31t17 14.5q0 6 -9 15.5t-18 24t-14 35t3 48.5z" />
    <glyph glyph-name="uniFE86" unicode="&#x624;" horiz-adv-x="422" arabic-form="final" 
d="M-101 -173q29 27 64.5 47.5t72.5 40t72.5 41t65.5 49.5q-11 9 -28 12t-30 14q-11 19 -14.5 39t-1 39.5t8.5 38t14 33.5q8 14 27 28.5t43 26.5t51 19.5t51.5 7.5t44.5 -9.5t30 -31.5q9 -20 13.5 -52.5t1.5 -64.5h37q4 -1 7.5 -2t7.5 -5q5 -5 10 -13.5t5 -28.5
q0 -21 -5 -31t-10 -15q-4 -4 -7.5 -6t-7.5 -4h-67q-20 -32 -52.5 -65t-70.5 -60t-78.5 -45t-76.5 -21q-26 -2 -44.5 1.5t-36.5 8t-40.5 7.5t-56.5 1zM180 87q16 -21 39.5 -23t43 9.5t31 33.5t5.5 50q-21 -3 -39.5 -7.5t-34.5 -12.5t-27.5 -20t-17.5 -30zM154 488q3 14 21 29
t41 24t45.5 8t33.5 -19q0 -4 -12 -16.5t-24.5 -28t-20 -32.5t3.5 -30q11 -7 26 -7.5t31 2.5t32.5 7.5t30.5 9.5q6 -2 8.5 -11t2.5 -19t-2.5 -18.5t-8.5 -8.5q-41 -12 -86 -35.5t-84.5 -46.5t-69 -41.5t-38.5 -21.5q-1 22 15.5 44.5t37 41.5t37.5 31.5t17 14.5q0 6 -9 15.5
t-18 24.5t-13.5 35.5t3.5 47.5z" />
    <glyph glyph-name="uniFE8B" unicode="&#x626;" horiz-adv-x="298" arabic-form="initial" 
d="M-26 54q0 21 3.5 32t8.5 15q4 4 13 4q34 0 57.5 18t40.5 47t29 65.5t23 72.5q3 12 11 21.5t17.5 14t19.5 2t17 -13.5q13 -26 17 -54.5t2.5 -55t-6 -48.5t-7.5 -36q-8 -21 -23 -45t-40.5 -45t-64 -34.5t-93.5 -13.5q-2 0 -4.5 1.5t-5.5 2.5q-3 6 -9 16.5t-6 33.5zM83 567
q3 14 21 28.5t40.5 23.5t43.5 8t32 -19q1 -4 -11 -15.5t-24.5 -27t-19 -31.5t4.5 -29q10 -7 24.5 -7.5t30.5 2.5t32 7.5t30 9.5q6 -2 8.5 -11t2.5 -19.5t-2.5 -18.5t-8.5 -8q-41 -12 -85 -34.5t-82.5 -45t-67 -40t-37.5 -20.5q-1 21 15 43t36 40.5t36.5 31t16.5 14.5
q0 5 -8.5 14t-17.5 23t-13.5 34t3.5 47z" />
    <glyph glyph-name="uniFE8C" unicode="&#x626;" horiz-adv-x="248" arabic-form="medial" 
d="M-29 49q0 34 14 46q5 7 15 10q31 1 55 19t42 44.5t31 57t21.5 56.5t13.5 43t7 17q22 9 36.5 0t22 -28.5t9.5 -46t0.5 -52.5t-6.5 -47.5t-11 -31.5q-11 -18 -2 -24.5t23 -6.5q7 0 12 -5t8.5 -15.5t3.5 -29.5q0 -21 -3 -32t-7 -16q-4 -6 -8 -7q-26 0 -48.5 10t-33.5 42
q-6 -7 -19.5 -16t-34 -17t-48.5 -13.5t-64 -5.5q-9 1 -15 6t-10 14.5t-4 28.5zM61 584q3 13 21 28t40.5 24t45 8t33.5 -18q0 -4 -12 -16t-24.5 -27.5t-19.5 -32t4 -29.5q11 -7 25.5 -8t30.5 2t32 8t30 9q6 -2 8.5 -10.5t2.5 -19t-2.5 -19t-8.5 -9.5q-41 -12 -86 -34t-84 -45
t-67.5 -41t-37.5 -21q-2 21 14.5 43.5t36.5 41t37 31t17 14.5q0 6 -8.5 15.5t-17.5 23.5t-13.5 34.5t3.5 47.5z" />
    <glyph glyph-name="uni0627" unicode="&#x627;" horiz-adv-x="243" arabic-form="isolated" 
d="M191 887q32 -22 48 -69t19 -110t-5.5 -138t-24.5 -152.5t-38.5 -154t-47.5 -143t-51 -119t-50 -81.5q-5 0 -1 33.5t11.5 94t16.5 145t15 186.5q2 37 7.5 96t14.5 126.5t21.5 136.5t28.5 125q7 23 13.5 27t22.5 -3z" />
    <glyph glyph-name="uniFE8E" unicode="&#x627;" horiz-adv-x="196" arabic-form="final" 
d="M186 882q0 -1 1.5 -17t3 -40.5t3 -54.5t1.5 -59t-1 -54.5t-5 -41.5q-4 -32 -13 -82.5t-17.5 -107t-14.5 -114t-4.5 -103t14 -74.5t41.5 -29q1 0 6 -0.5t10 -5t9.5 -15t4.5 -30.5q0 -18 -5 -29t-10 -16q-7 -7 -15 -9q-6 0 -21 1.5t-33.5 11t-38 28.5t-34.5 54.5t-23 89.5
t-3 133q3 61 11 126.5t19.5 128t25.5 118.5t29 98.5t30 67.5t29 25z" />
    <glyph glyph-name="uni0628" unicode="&#x628;" horiz-adv-x="1072" arabic-form="isolated" 
d="M865 125q-58 -37 -125 -61t-134.5 -38t-131.5 -19.5t-116 -6t-88 3t-48 8.5q-12 1 -28.5 16t-34 39.5t-34.5 56t-31 66t-22.5 70t-9.5 67.5q-1 22 5.5 37.5t18 28t26 22.5t30.5 21q62 41 141.5 79.5t159.5 63.5q-6 -9 -17 -22t-25 -29t-30 -33t-32 -33q-18 -20 -38 -40
t-43 -42q-14 -17 -28.5 -30.5t-25 -28.5t-14 -33.5t5.5 -44.5q7 -19 24 -36t39.5 -29.5t48 -19.5t49.5 -6q52 2 108 9.5t111.5 19.5t108 27t95.5 32.5t74.5 36t46.5 36.5q13 13 19.5 27.5t11.5 29.5t10 28.5t16 25.5q7 6 16 8t18 0.5t15.5 -8t8.5 -16.5q4 -47 -3.5 -85
t-21.5 -67.5t-32.5 -51.5t-36.5 -37.5t-33.5 -25.5t-23.5 -16zM462 -255q-11 -8 -30 -2t-35.5 20.5t-25 34t2.5 40.5q5 8 13.5 16.5t19 14.5t21.5 10t21 3q21 -2 32.5 -19.5t13 -40t-6.5 -44.5t-26 -33z" />
    <glyph glyph-name="uniFE90" unicode="&#x628;" horiz-adv-x="1010" arabic-form="final" 
d="M471 -160q21 -2 32.5 -19t13 -40t-6.5 -45.5t-26 -34.5q-12 -7 -31 -1t-35.5 20.5t-25 34.5t2.5 41q5 8 14 16.5t19.5 15t21.5 10t21 2.5zM1026 99q6 -5 11.5 -17t5.5 -31q0 -18 -5.5 -29.5t-11.5 -16.5q-5 -5 -14 -5h-27h-27t-34.5 6t-38 20.5t-38.5 43.5
q-58 -38 -126 -63t-136.5 -39.5t-133.5 -20t-118 -5.5t-89.5 3.5t-46.5 7.5q-13 1 -30 16t-35 40t-35.5 57.5t-31.5 68t-23.5 71.5t-10.5 68q0 22 7 38t19 28t27 22t32 21q30 22 66 43t75.5 40t80.5 35.5t80 28.5q-7 -9 -18 -22.5t-25.5 -30t-30.5 -34t-32 -33.5
q-19 -20 -39.5 -40t-42.5 -41q-14 -18 -28.5 -32t-25 -29.5t-14 -34t4.5 -44.5q8 -19 25.5 -36.5t40 -30t48 -19.5t49.5 -6q78 1 165.5 17t166 39.5t138 51.5t82.5 55q13 13 20 28t11.5 29.5t9.5 27.5t16 24q7 7 16 9.5t17.5 1t15.5 -7.5t9 -16q4 -54 -8.5 -89.5t-29 -59.5
t-31 -41.5t-14.5 -35.5q0 -16 14.5 -20.5t56.5 -4.5h24q6 -1 9.5 -2.5t7.5 -3.5z" />
    <glyph glyph-name="uniFE91" unicode="&#x628;" horiz-adv-x="278" arabic-form="initial" 
d="M141 -214q-12 -7 -34 0t-40.5 22.5t-27.5 37t3 45.5q6 9 15.5 18t21 16t24 11t23.5 3q24 -2 36.5 -21.5t14.5 -44t-7 -49.5t-29 -38zM-18 54q0 18 3 28t6 15q4 6 9 8q37 0 62.5 18t42.5 47t29 65.5t22 73.5q3 11 11.5 20.5t18 14t19.5 2.5t17 -13q13 -26 17 -54.5
t2.5 -55.5t-6 -49.5t-7.5 -35.5q-8 -21 -24 -45.5t-43 -45t-66.5 -34t-94.5 -13.5q-5 -1 -9 4t-7 16t-2 34z" />
    <glyph glyph-name="uniFE92" unicode="&#x628;" horiz-adv-x="256" arabic-form="medial" 
d="M123 -252q-12 -7 -34 0t-40.5 22.5t-27.5 37t3 45.5q6 9 15.5 18t21 16t24 11t23.5 3q24 -2 36.5 -21.5t14.5 -44t-7 -49.5t-29 -38zM-30 48q0 21 4.5 33t10.5 17q6 6 15 7q31 1 54.5 18.5t41.5 43.5t30.5 56t21 56t13.5 43t7 17q22 9 36.5 0t22 -28.5t9.5 -45.5
t0.5 -51.5t-6.5 -47t-11 -31.5q-6 -9 -3.5 -15t9.5 -9t15.5 -4.5t15.5 -1.5q6 -1 10 -6t7.5 -15.5t3.5 -29.5q0 -20 -3.5 -31t-7.5 -16q-4 -6 -10 -7q-12 0 -26 2t-26.5 7.5t-22.5 15.5t-16 26q-7 -7 -20 -15.5t-33.5 -16.5t-48 -13.5t-63.5 -5.5q-9 1 -15 6t-10.5 14.5
t-4.5 27.5z" />
    <glyph glyph-name="uni067E" unicode="&#x67e;" horiz-adv-x="1010" arabic-form="isolated" 
d="M474 -419q-15 -11 -30.5 -10.5t-27.5 9.5t-19 24.5t-5 33.5q7 22 27 25t38 -7t26 -30t-9 -45zM582 -195q0 -16 -15.5 -24t-35.5 -14t-38.5 -14t-25.5 -23q-30 -8 -63 -9t-59.5 6.5t-41.5 26t-8 51.5q73 14 145.5 16.5t141.5 -16.5zM840 60q-58 -37 -125 -61t-134.5 -38
t-131.5 -19.5t-116 -6t-88 3t-48 8.5q-12 1 -28.5 16t-34 39.5t-34.5 56t-31 66t-22.5 70t-9.5 67.5q-1 22 5.5 37.5t18 28t26 22.5t30.5 21q62 41 141.5 79.5t159.5 63.5q-6 -9 -17 -22t-25 -29t-30 -33t-32 -33q-18 -20 -38 -40t-43 -42q-14 -17 -28.5 -30.5t-25 -28.5
t-14 -33.5t5.5 -44.5q7 -19 24 -36t39.5 -29.5t48 -19.5t49.5 -6q52 2 108 9.5t111.5 19.5t108 27t95.5 32.5t74.5 36t46.5 36.5q13 13 19.5 27.5t11.5 29.5t10 28.5t16 25.5q7 6 16 8t18 0.5t15.5 -8t8.5 -16.5q4 -47 -3.5 -85t-21.5 -67.5t-32.5 -51.5t-36.5 -37.5
t-33.5 -25.5t-23.5 -16z" />
    <glyph glyph-name="uniFB57" unicode="&#x67e;" horiz-adv-x="1009" arabic-form="final" 
d="M474 -407q-14 -11 -28.5 -10.5t-26.5 9t-19.5 24t-6.5 33.5q7 22 27 25.5t38 -6.5t25.5 -30t-9.5 -45zM583 -184q0 -16 -15 -24t-34.5 -14t-38.5 -14t-26 -23q-29 -7 -62 -8.5t-60 6.5t-42 26.5t-9 50.5q73 15 145.5 17t141.5 -17zM1026 99q6 -5 11.5 -17t5.5 -31
q0 -18 -5.5 -29.5t-11.5 -16.5q-5 -5 -14 -5h-27h-27t-34.5 6t-38 20.5t-38.5 43.5q-58 -38 -126 -63t-136.5 -39.5t-133.5 -20t-118 -5.5t-89.5 3.5t-46.5 7.5q-13 1 -30 16t-35 40t-35.5 57.5t-31.5 68t-23.5 71.5t-10.5 68q0 22 7 38t19 28t27 22t32 21q30 22 66 43
t75.5 40t80.5 35.5t80 28.5q-7 -9 -18 -22.5t-25.5 -30t-30.5 -34t-32 -33.5q-19 -20 -39.5 -40t-42.5 -41q-14 -18 -28.5 -32t-25 -29.5t-14 -34t4.5 -44.5q8 -19 25.5 -36.5t40 -30t48 -19.5t49.5 -6q78 1 165.5 17t166 39.5t138 51.5t82.5 55q13 13 20 28t11.5 29.5
t9.5 27.5t16 24q7 7 16 9.5t17.5 1t15.5 -7.5t9 -16q4 -54 -8.5 -89.5t-29 -59.5t-31 -41.5t-14.5 -35.5q0 -16 14.5 -20.5t56.5 -4.5h24q6 -1 9.5 -2.5t7.5 -3.5z" />
    <glyph glyph-name="uniFB58" unicode="&#x67e;" horiz-adv-x="304" arabic-form="initial" 
d="M-18 54q0 18 3 28t6 15q4 6 9 8q45 0 74 11.5t48.5 36t33.5 63.5t30 93q3 12 11.5 21t18 13.5t19.5 2.5t17 -13q13 -26 17 -54.5t2.5 -55.5t-6 -49.5t-7.5 -35.5q-8 -23 -23.5 -47t-45 -44.5t-75.5 -33.5t-114 -13q-5 -1 -9 4t-7 16t-2 34zM177 -321q-14 -11 -28.5 -10.5
t-26.5 9t-19.5 24t-6.5 33.5q7 22 27 25.5t38 -6.5t25.5 -30t-9.5 -45zM286 -98q0 -16 -15 -24t-34.5 -14t-38.5 -14t-26 -23q-29 -7 -62 -8.5t-60 6.5t-42 26.5t-9 50.5q73 15 145.5 17t141.5 -17z" />
    <glyph glyph-name="uniFB59" unicode="&#x67e;" horiz-adv-x="301" arabic-form="medial" 
d="M-30 48q0 21 4.5 33t10.5 17q6 6 15 7q43 0 72 14t48 36.5t30 49.5t18.5 53t13 47.5t14.5 33.5q22 13 36 6t22 -26.5t10 -47t0 -54.5t-6.5 -49.5t-10.5 -32.5q-6 -9 -3 -15t11 -9t20.5 -4.5t25.5 -1.5q6 -1 10 -6t7.5 -15.5t3.5 -29.5q0 -20 -3.5 -31t-7.5 -16
q-4 -6 -10 -7q-37 1 -67 9.5t-41 41.5q-7 -7 -20.5 -16t-36 -17.5t-56 -13.5t-80.5 -4q-9 1 -15 6t-10.5 14.5t-4.5 27.5zM174 -377q-14 -11 -28.5 -10.5t-26.5 9t-19.5 24t-6.5 33.5q7 22 27 25.5t38 -6.5t25.5 -30t-9.5 -45zM283 -154q0 -16 -15 -24t-34.5 -14t-38.5 -14
t-26 -23q-29 -7 -62 -8.5t-60 6.5t-42 26.5t-9 50.5q73 15 145.5 17t141.5 -17z" />
    <glyph glyph-name="uni062A" unicode="&#x62a;" horiz-adv-x="1001" arabic-form="isolated" 
d="M993 726q0 -9 -8 -17t-21 -14.5t-29.5 -11.5t-33.5 -6q-2 -5 -2 -10.5t-0.5 -10.5t-2 -8.5t-7.5 -3.5q-36 -10 -76 -14t-80 -7t-78 -8t-69 -17q-13 -1 -25.5 3t-21.5 11.5t-13 19t2 25.5q5 14 28.5 25.5t58 21.5t75.5 17t81.5 12t76 7t58.5 1q11 0 25.5 -0.5t27.5 -2
t22.5 -4.5t11.5 -8zM831 61q-58 -37 -125 -61t-134.5 -38t-131.5 -19.5t-116 -6t-88 3t-48 8.5q-12 1 -28.5 16t-34 39.5t-34.5 56t-31 66t-22.5 70t-9.5 67.5q-1 22 5.5 37.5t18 28t26 22.5t30.5 21q62 41 141.5 79.5t159.5 63.5q-6 -9 -17 -22t-25 -29t-30 -33t-32 -33
q-18 -20 -38 -40t-43 -42q-14 -17 -28.5 -30.5t-25 -28.5t-14 -33.5t5.5 -44.5q7 -19 24 -36t39.5 -29.5t48 -19.5t49.5 -6q52 2 108 9.5t111.5 19.5t108 27t95.5 32.5t74.5 36t46.5 36.5q13 13 19.5 27.5t11.5 29.5t10 28.5t16 25.5q7 6 16 8t18 0.5t15.5 -8t8.5 -16.5
q4 -47 -3.5 -85t-21.5 -67.5t-32.5 -51.5t-36.5 -37.5t-33.5 -25.5t-23.5 -16z" />
    <glyph glyph-name="uniFE96" unicode="&#x62a;" horiz-adv-x="1010" arabic-form="final" 
d="M986 768q0 -9 -8 -17t-21.5 -14.5t-30.5 -11t-34 -5.5q-2 -5 -2 -11v-11.5t-2 -9.5t-8 -5q-36 -9 -76.5 -12t-80 -6t-77 -7.5t-68.5 -16.5q-12 -2 -24.5 1t-21.5 10.5t-13 19t1 26.5q4 14 27 26t57.5 21.5t76 17t82.5 12.5t76.5 7t58.5 1q12 0 26 -0.5t27 -2.5t23 -5
t12 -7zM1026 99q6 -5 11.5 -17t5.5 -31q0 -18 -5.5 -29.5t-11.5 -16.5q-5 -5 -14 -5h-27h-27t-34.5 6t-38 20.5t-38.5 43.5q-58 -38 -126 -63t-136.5 -39.5t-133.5 -20t-118 -5.5t-89.5 3.5t-46.5 7.5q-13 1 -30 16t-35 40t-35.5 57.5t-31.5 68t-23.5 71.5t-10.5 68
q0 22 7 38t19 28t27 22t32 21q30 22 66 43t75.5 40t80.5 35.5t80 28.5q-7 -9 -18 -22.5t-25.5 -30t-30.5 -34t-32 -33.5q-19 -20 -39.5 -40t-42.5 -41q-14 -18 -28.5 -32t-25 -29.5t-14 -34t4.5 -44.5q8 -19 25.5 -36.5t40 -30t48 -19.5t49.5 -6q78 1 165.5 17t166 39.5
t138 51.5t82.5 55q13 13 20 28t11.5 29.5t9.5 27.5t16 24q7 7 16 9.5t17.5 1t15.5 -7.5t9 -16q4 -54 -8.5 -89.5t-29 -59.5t-31 -41.5t-14.5 -35.5q0 -16 14.5 -20.5t56.5 -4.5h24q6 -1 9.5 -2.5t7.5 -3.5z" />
    <glyph glyph-name="uniFE97" unicode="&#x62a;" horiz-adv-x="335" arabic-form="initial" 
d="M-18 54q0 18 3 28t6 15q4 6 9 8q45 0 74 11.5t48.5 36t33.5 63.5t30 93q3 12 11.5 21t18 13.5t19.5 2.5t17 -13q13 -26 17 -54.5t2.5 -55.5t-6 -49.5t-7.5 -35.5q-8 -23 -23.5 -47t-45 -44.5t-75.5 -33.5t-114 -13q-5 -1 -9 4t-7 16t-2 34zM361 573q0 -16 -16.5 -24.5
t-37.5 -15t-41 -15t-27 -24.5q-31 -8 -65.5 -9t-62.5 7t-43.5 27.5t-8.5 53.5q77 16 153.5 18t148.5 -18z" />
    <glyph glyph-name="uniFE98" unicode="&#x62a;" horiz-adv-x="301" arabic-form="medial" 
d="M356 573q0 -16 -16.5 -24.5t-37.5 -15t-41 -15t-27 -24.5q-31 -8 -65.5 -9t-62.5 7t-43.5 27.5t-8.5 53.5q77 16 153.5 18t148.5 -18zM-30 48q0 21 4.5 33t10.5 17q6 6 15 7q43 0 72 14t48 36.5t30 49.5t18.5 53t13 47.5t14.5 33.5q22 13 36 6t22 -26.5t10 -47t0 -54.5
t-6.5 -49.5t-10.5 -32.5q-6 -9 -3 -15t11 -9t20.5 -4.5t25.5 -1.5q6 -1 10 -6t7.5 -15.5t3.5 -29.5q0 -20 -3.5 -31t-7.5 -16q-4 -6 -10 -7q-37 1 -67 9.5t-41 41.5q-7 -7 -20.5 -16t-36 -17.5t-56 -13.5t-80.5 -4q-9 1 -15 6t-10.5 14.5t-4.5 27.5z" />
    <glyph glyph-name="uni062B" unicode="&#x62b;" horiz-adv-x="1006" arabic-form="isolated" 
d="M674 556q-16 -11 -31.5 -10t-27.5 9.5t-18.5 23.5t-4.5 33q6 23 25.5 26.5t37.5 -6.5t26.5 -30.5t-7.5 -45.5zM795 453q1 -16 -14 -23.5t-35.5 -14t-39.5 -14.5t-26 -24q-30 -7 -63 -8t-59.5 7t-41 26.5t-6.5 50.5q73 14 145.5 16t139.5 -16zM826 61q-58 -37 -125 -61
t-134.5 -38t-131.5 -19.5t-116 -6t-88 3t-48 8.5q-12 1 -28.5 16t-34 39.5t-34.5 56t-31 66t-22.5 70t-9.5 67.5q-1 22 5.5 37.5t18 28t26 22.5t30.5 21q62 41 141.5 79.5t159.5 63.5q-6 -9 -17 -22t-25 -29t-30 -33t-32 -33q-18 -20 -38 -40t-43 -42q-14 -17 -28.5 -30.5
t-25 -28.5t-14 -33.5t5.5 -44.5q7 -19 24 -36t39.5 -29.5t48 -19.5t49.5 -6q52 2 108 9.5t111.5 19.5t108 27t95.5 32.5t74.5 36t46.5 36.5q13 13 19.5 27.5t11.5 29.5t10 28.5t16 25.5q7 6 16 8t18 0.5t15.5 -8t8.5 -16.5q4 -47 -3.5 -85t-21.5 -67.5t-32.5 -51.5
t-36.5 -37.5t-33.5 -25.5t-23.5 -16z" />
    <glyph glyph-name="uniFE9A" unicode="&#x62b;" horiz-adv-x="1011" arabic-form="final" 
d="M704 590q-17 -11 -32.5 -10t-27 9.5t-17.5 24t-4 33.5q6 23 25.5 26.5t37 -7t26 -31t-7.5 -45.5zM825 487q1 -16 -14 -23.5t-35.5 -14t-39.5 -14t-26 -23.5q-29 -7 -62 -8.5t-59.5 6.5t-41 26.5t-6.5 50.5q73 15 145.5 17t138.5 -17zM1026 99q6 -5 11.5 -17t5.5 -31
q0 -18 -5.5 -29.5t-11.5 -16.5q-5 -5 -14 -5h-27h-27t-34.5 6t-38 20.5t-38.5 43.5q-58 -38 -126 -63t-136.5 -39.5t-133.5 -20t-118 -5.5t-89.5 3.5t-46.5 7.5q-13 1 -30 16t-35 40t-35.5 57.5t-31.5 68t-23.5 71.5t-10.5 68q0 22 7 38t19 28t27 22t32 21q30 22 66 43
t75.5 40t80.5 35.5t80 28.5q-7 -9 -18 -22.5t-25.5 -30t-30.5 -34t-32 -33.5q-19 -20 -39.5 -40t-42.5 -41q-14 -18 -28.5 -32t-25 -29.5t-14 -34t4.5 -44.5q8 -19 25.5 -36.5t40 -30t48 -19.5t49.5 -6q78 1 165.5 17t166 39.5t138 51.5t82.5 55q13 13 20 28t11.5 29.5
t9.5 27.5t16 24q7 7 16 9.5t17.5 1t15.5 -7.5t9 -16q4 -54 -8.5 -89.5t-29 -59.5t-31 -41.5t-14.5 -35.5q0 -16 14.5 -20.5t56.5 -4.5h24q6 -1 9.5 -2.5t7.5 -3.5z" />
    <glyph glyph-name="uniFE9B" unicode="&#x62b;" horiz-adv-x="302" arabic-form="initial" 
d="M-18 54q0 18 3 28t6 15q4 6 9 8q45 0 74 11.5t48.5 36t33.5 63.5t30 93q3 12 11.5 21t18 13.5t19.5 2.5t17 -13q13 -26 17 -54.5t2.5 -55.5t-6 -49.5t-7.5 -35.5q-8 -23 -23.5 -47t-45 -44.5t-75.5 -33.5t-114 -13q-5 -1 -9 4t-7 16t-2 34zM180 627q-17 -11 -32.5 -10
t-27 9.5t-17.5 24t-4 33.5q6 23 25.5 26.5t37 -7t26 -31t-7.5 -45.5zM301 524q1 -16 -14 -23.5t-35.5 -14t-39.5 -14t-26 -23.5q-29 -7 -62 -8.5t-59.5 6.5t-41 26.5t-6.5 50.5q73 15 145.5 17t138.5 -17z" />
    <glyph glyph-name="uniFE9C" unicode="&#x62b;" horiz-adv-x="301" arabic-form="medial" 
d="M-30 48q0 21 4.5 33t10.5 17q6 6 15 7q43 0 72 14t48 36.5t30 49.5t18.5 53t13 47.5t14.5 33.5q22 13 36 6t22 -26.5t10 -47t0 -54.5t-6.5 -49.5t-10.5 -32.5q-6 -9 -3 -15t11 -9t20.5 -4.5t25.5 -1.5q6 -1 10 -6t7.5 -15.5t3.5 -29.5q0 -20 -3.5 -31t-7.5 -16
q-4 -6 -10 -7q-37 1 -67 9.5t-41 41.5q-7 -7 -20.5 -16t-36 -17.5t-56 -13.5t-80.5 -4q-9 1 -15 6t-10.5 14.5t-4.5 27.5zM176 649q-17 -11 -32.5 -10t-27 9.5t-17.5 24t-4 33.5q6 23 25.5 26.5t37 -7t26 -31t-7.5 -45.5zM297 546q1 -16 -14 -23.5t-35.5 -14t-39.5 -14
t-26 -23.5q-29 -7 -62 -8.5t-59.5 6.5t-41 26.5t-6.5 50.5q73 15 145.5 17t138.5 -17z" />
    <glyph glyph-name="uni062C" unicode="&#x62c;" horiz-adv-x="700" arabic-form="isolated" 
d="M698 -76q1 -9 -6 -22.5t-18 -28.5t-25 -29t-28 -25t-26 -17.5t-19 -5.5q-29 -6 -57.5 -22t-57.5 -34.5t-59 -36t-61 -27t-64.5 -8t-69.5 21.5q-26 14 -56.5 46t-57.5 72.5t-45.5 84.5t-20.5 82q-4 60 13 114t47.5 101.5t71.5 89.5t84 78.5t85 68.5t76 59q-31 22 -60 21
t-53 -15.5t-41 -38t-24 -47.5q-2 -6 -9 -10.5t-16.5 -6.5t-21 0t-21.5 10q-17 27 -19.5 66t8.5 75.5t35 63t62 29.5q13 2 31.5 -1.5t39.5 -9.5t43.5 -13t45.5 -12q28 -6 59 -12t60 -13.5t53 -18.5t37.5 -27t14.5 -39.5t-16 -55.5q-77 -22 -154.5 -62.5t-144 -95.5
t-116.5 -122.5t-71 -143.5q-8 -30 3.5 -64.5t37 -63t61.5 -46t77 -12.5q47 4 96 19t98.5 31.5t99.5 31.5t99 21zM414 43q-8 -9 -23.5 -22.5t-34.5 -24.5t-39.5 -16.5t-37.5 -0.5t-28.5 24.5t-12.5 58.5q-1 46 15 67t40.5 24t51.5 -7.5t47 -28t28 -38t-6 -36.5z" />
    <glyph glyph-name="uniFE9E" unicode="&#x62c;" horiz-adv-x="650" arabic-form="final" 
d="M729 -285q4 -22 -10.5 -42.5t-36 -40.5t-43.5 -41t-31 -43q-44 -36 -93.5 -64.5t-104 -43.5t-113.5 -13t-121 29q-31 12 -59.5 35t-51 52t-37.5 62t-18 65q-11 73 1.5 134t41.5 111t71.5 91t92 74t103 60.5t105.5 50.5q-28 39 -53.5 52t-50.5 8.5t-50.5 -21t-52 -35
t-55 -35.5t-60.5 -21q-27 46 -21 92t31 83.5t62.5 62t73.5 27.5q38 3 68 -10.5t57 -35t52.5 -45t55.5 -39.5q16 -8 31 -11t29.5 -6t27 -8.5t24.5 -16.5q7 -6 11 -18.5t5 -26t-1.5 -25t-6.5 -15.5q-30 -10 -44 -17t-15.5 -11.5t6 -7t19.5 -3.5q27 -3 83 -3q5 0 8 -0.5t7 -3.5
q5 -5 8.5 -16.5t3.5 -30.5q0 -23 -4.5 -33t-9.5 -16q-5 -5 -16 -5h-97q-108 0 -185.5 -21t-130 -54.5t-81 -76.5t-38.5 -87.5t-2.5 -86t27 -72.5t49.5 -47.5t66 -11.5q58 8 120 29.5t123.5 47.5t120 52t109.5 43zM505 -248q-7 -10 -22.5 -23t-34.5 -23.5t-39.5 -16.5
t-37.5 -0.5t-28.5 25t-12.5 58.5q-1 45 15 66t40.5 24t51.5 -8t46.5 -28t27.5 -37.5t-6 -36.5z" />
    <glyph glyph-name="uniFE9F" unicode="&#x62c;" horiz-adv-x="505" arabic-form="initial" 
d="M178 -206q-7 -9 -22 -21.5t-33.5 -23t-37.5 -16t-35.5 -0.5t-27 23.5t-11.5 55.5q-1 43 14.5 62.5t38.5 22.5t48.5 -7t44.5 -26.5t26.5 -35.5t-5.5 -34zM-29 53q0 21 4.5 31t9.5 16q3 2 6.5 3.5t8.5 1.5q48 1 88 14.5t74 37.5t61.5 57t48.5 73q-14 26 -30.5 31.5
t-33 -1.5t-33.5 -23t-33 -33t-29.5 -31.5t-24.5 -18.5q-11 -6 -23.5 -5t-12.5 11q-2 47 7.5 84.5t28 63.5t45 39.5t58.5 11.5q21 -2 40 -12t38 -21.5t39 -21t43 -9.5q21 -1 44 0.5t42.5 -2.5t33 -18t14.5 -45q-40 -16 -74 -43.5t-67 -59.5t-68 -64.5t-75.5 -59t-89 -43.5
t-110.5 -17h-1q-10 1 -15 5q-5 5 -9.5 15.5t-4.5 32.5z" />
    <glyph glyph-name="uniFEA0" unicode="&#x62c;" horiz-adv-x="429" arabic-form="medial" 
d="M222 -249q-1 -5 -11 -10.5t-24.5 -10.5t-32 -8.5t-33 -4t-27 2.5t-14.5 12q-5 10 -6.5 24t0.5 27.5t6.5 25.5t12.5 20q15 18 37 17.5t43 -13.5t35.5 -35t13.5 -47zM-23 55q0 16 4 26t9 15q3 2 6.5 5.5t7.5 3.5q53 -2 85.5 11t57.5 36.5t48.5 56t58.5 71.5
q-16 26 -32.5 31.5t-34 -1t-34.5 -22.5t-33 -33t-29.5 -32t-24.5 -19q-9 -5 -21.5 -4t-14.5 11q-2 46 7.5 83.5t28.5 64t46 40t60 12.5q21 -2 40 -12.5t38 -22t38.5 -20.5t40.5 -9q22 -1 41.5 -1t35 -6t25 -21.5t11.5 -47.5q-29 -17 -55 -34t-50 -38t-29 -23q-5 -4 -18 -31
q5 -10 17 -16.5t27 -12.5q8 -2 21 -6.5t32 -4.5h46q5 -1 9.5 -4t9.5 -5q7 -6 12.5 -17t6.5 -32q0 -28 -9.5 -37.5t-32.5 -9.5q-55 5 -88.5 10.5t-47.5 8.5q-27 8 -40 16q-13 9 -19.5 14.5t-17.5 20.5q-8 -11 -48 -31q-18 -9 -33 -15.5t-28 -10.5q-45 -13 -106 -13
q-4 1 -6.5 3t-5.5 4q-5 6 -8.5 16t-3.5 32z" />
    <glyph glyph-name="uni0686" unicode="&#x686;" horiz-adv-x="697" arabic-form="isolated" 
d="M443 -37q-16 -12 -31.5 -11t-28 10t-19.5 25.5t-6 36.5q7 23 28.5 26.5t40 -7.5t26.5 -32.5t-10 -47.5zM589 181q0 -17 -16.5 -25t-37.5 -14.5t-41 -15t-27 -24.5q-32 -8 -67 -9t-63 7t-43.5 27.5t-8.5 53.5q77 16 154 18t150 -18zM689 -73q1 -10 -6 -23t-18.5 -28
t-25.5 -29t-28 -25t-26 -17.5t-19 -5.5q-29 -6 -57.5 -22t-57.5 -34.5t-58.5 -36t-61 -27t-65 -8t-69.5 21.5q-25 14 -55.5 46t-57.5 72.5t-45.5 84.5t-20.5 82q-5 60 12 114t47.5 101.5t71.5 89.5t84 78.5t85 68.5t76 59q-31 22 -60 21t-53 -15.5t-41 -38t-25 -47.5
q-4 -12 -24.5 -17t-42.5 10q-17 27 -19.5 66t9 75.5t35.5 63t62 29.5q13 2 31 -1.5t39 -9.5t44 -13t45 -12q28 -6 59 -12t60 -13.5t53 -18.5t37.5 -27t14.5 -39.5t-16 -55.5q-76 -22 -153.5 -62.5t-144 -95.5t-116.5 -122.5t-71 -143.5q-9 -30 3 -64.5t37.5 -63t61.5 -46
t77 -12.5q47 4 95.5 19t98 31.5t99.5 31.5t100 21z" />
    <glyph glyph-name="uniFB7B" unicode="&#x686;" horiz-adv-x="654" arabic-form="final" 
d="M734 -285q4 -22 -10.5 -42.5t-36 -40.5t-43.5 -41t-31 -43q-43 -36 -92.5 -64.5t-104.5 -43.5t-114 -12.5t-121 29.5q-30 12 -58.5 34.5t-51 52t-37.5 62t-19 64.5q-10 73 2 134t41 111.5t71.5 91t92.5 74t103.5 61t105.5 50.5q-26 40 -51.5 52.5t-51 8.5t-51.5 -21
t-53 -36t-56 -35.5t-60 -20.5q-18 30 -20.5 61t5.5 60t25.5 54t39.5 44.5t47 31t50 13.5q38 4 68 -10t56.5 -35t52.5 -45t56 -40q16 -8 31 -11t29 -6t27 -8.5t25 -16.5q7 -6 10.5 -18.5t4.5 -26t-1.5 -25t-6.5 -15.5q-30 -10 -43.5 -17t-15 -11.5t6 -7t18.5 -3.5
q28 -3 85 -3q9 0 13 -4q5 -5 8.5 -16t3.5 -31q0 -22 -4.5 -32t-9.5 -17q-4 -2 -7 -3t-8 -2h-98q-108 0 -185.5 -21t-129.5 -54.5t-81 -76.5t-38.5 -87t-2.5 -85.5t27 -73t50 -48t66 -11.5q58 8 120 29.5t123.5 47.5t119.5 52t109 43zM402 -368q-17 -12 -33.5 -11t-28.5 10.5
t-19 25.5t-5 36q6 24 26.5 27.5t39 -7.5t27.5 -33t-7 -48zM529 -151q1 -17 -15 -25t-37.5 -15t-42 -15.5t-27.5 -25.5q-31 -7 -66 -8t-62.5 7t-43 27.5t-7.5 54.5q78 15 154 17t147 -17z" />
    <glyph glyph-name="uniFB7C" unicode="&#x686;" horiz-adv-x="493" arabic-form="initial" 
d="M187 -351q-15 -11 -30.5 -10t-27.5 10t-19 24.5t-5 33.5q7 22 27 25.5t37.5 -6.5t25.5 -31t-8 -46zM295 -127q0 -15 -15.5 -23t-35.5 -14t-38.5 -14t-25.5 -24q-30 -7 -63 -8.5t-60 6.5t-42 26.5t-8 50.5q74 15 146.5 17t141.5 -17zM-29 54q0 20 4.5 31t10.5 16q4 4 14 4
q48 1 88.5 14.5t74 37.5t61 57t49.5 73q-15 26 -31 31.5t-33 -1t-34 -22.5t-33 -33t-29.5 -31.5t-24.5 -18.5q-11 -5 -23.5 -4t-12.5 10q-2 46 7.5 84t28 64.5t45 40t58.5 11.5q21 -2 40 -12t38 -21.5t39.5 -20.5t43.5 -9q20 -2 43 -1t42.5 -3t32.5 -18t14 -46
q-40 -16 -74.5 -43t-68.5 -58.5t-69 -64t-76.5 -59t-90.5 -44t-111 -18.5h6q-10 2 -14 6q-6 5 -10.5 15.5t-4.5 32.5z" />
    <glyph glyph-name="uniFB7D" unicode="&#x686;" horiz-adv-x="429" arabic-form="medial" 
d="M191 -396q-15 -10 -30.5 -9t-27.5 10t-19 24t-5 34q7 22 27 25t38 -7t26 -31t-9 -46zM299 -171q0 -16 -15.5 -24t-35.5 -14t-38.5 -14t-25.5 -24q-30 -7 -63 -8t-60 6.5t-42 26t-8 51.5q74 14 146.5 16.5t141.5 -16.5zM-24 55q0 15 4 26t9 16q6 8 14 8q53 -1 85.5 11.5
t57.5 36t48.5 56t58.5 71.5q-16 26 -32.5 31.5t-34 -1.5t-34.5 -22.5t-32.5 -32.5t-29.5 -31.5t-25 -18.5q-9 -5 -21.5 -4.5t-14.5 10.5q-2 46 7.5 83.5t28.5 64t46.5 40t60.5 12.5q20 -2 39 -12.5t38 -22t39 -21t41 -9.5q21 -1 40.5 -1t35 -6t25 -21.5t10.5 -46.5
q-28 -17 -54 -34t-50 -37q-23 -21 -29 -25q-6 -5 -18 -30q5 -10 17 -16.5t28 -12.5q8 -3 21 -5.5t33 -4.5t30.5 -1.5t13.5 0.5q6 -1 10 -3t9 -5q7 -6 12.5 -18t6.5 -32q0 -28 -9.5 -37.5t-31.5 -9.5q-57 2 -90 8.5t-47 9.5q-14 5 -23.5 8.5t-16.5 9.5q-13 8 -19 13.5
t-18 20.5q-8 -10 -48 -31q-18 -9 -33 -15.5t-28 -10.5q-45 -13 -106 -13q-6 2 -12 7q-5 5 -8.5 15.5t-3.5 32.5z" />
    <glyph glyph-name="uni062D" unicode="&#x62d;" horiz-adv-x="684" arabic-form="isolated" 
d="M698 -72q0 -10 -6.5 -23.5t-18 -28t-25.5 -28.5t-28 -25t-26 -17.5t-19 -5.5q-29 -7 -57.5 -23t-57.5 -34.5t-59 -36t-61 -27t-64.5 -7.5t-69.5 23q-25 13 -55.5 45t-57.5 72.5t-45.5 84.5t-20.5 82q-5 60 12 113.5t47.5 101.5t71.5 90t84 78.5t85 68.5t76 59
q-31 21 -60 20.5t-52.5 -15t-40.5 -38t-25 -47.5q-2 -6 -9 -11t-16.5 -6.5t-21 0.5t-21.5 10q-17 27 -19.5 66t8.5 75t35.5 63t61.5 30q13 2 31.5 -2t39.5 -10t43.5 -13t45.5 -11q28 -7 59 -12.5t60 -13.5t53 -18.5t37.5 -27t14.5 -39.5t-16 -55q-77 -22 -154.5 -62.5
t-144 -95.5t-116.5 -123t-71 -144q-8 -30 4 -64.5t37.5 -63t61.5 -45.5t77 -12q47 4 95.5 19t98 32t99.5 32t100 20z" />
    <glyph glyph-name="uniFEA2" unicode="&#x62d;" horiz-adv-x="647" arabic-form="final" 
d="M727 -285q4 -22 -10.5 -42.5t-36 -40.5t-43.5 -41t-31 -43q-43 -36 -92.5 -64.5t-104.5 -43.5t-114 -13t-121 29q-30 12 -58.5 35t-51.5 52t-38 62t-18 65q-11 73 1.5 134t41.5 111t71.5 91t92.5 74t103.5 60.5t105.5 50.5q-26 40 -51.5 52.5t-51 8.5t-51.5 -20.5
t-53 -35.5t-56 -36t-60 -21q-18 31 -20.5 62t5.5 60t25.5 54t39.5 44.5t47 31t50 13.5q38 3 68 -10.5t56.5 -35t52.5 -45t56 -39.5q16 -8 31 -11.5t29 -6.5t27 -8t25 -16q7 -6 10.5 -18.5t4.5 -26t-1.5 -25t-6.5 -15.5q-30 -10 -43.5 -18t-15 -13t6 -8t18.5 -3h85q4 -1 7 -1
t6 -3q5 -5 8.5 -16.5t3.5 -30.5q0 -23 -4.5 -33t-9.5 -16q-4 -2 -7 -3t-8 -2h-98q-108 0 -185.5 -21t-129.5 -54.5t-81 -76.5t-38.5 -87.5t-2.5 -86t27 -72.5t50 -47.5t66 -11.5q58 8 119.5 29.5t123 47.5t120 52t109.5 43z" />
    <glyph glyph-name="uniFEA3" unicode="&#x62d;" horiz-adv-x="488" arabic-form="initial" 
d="M347 351q19 -1 41.5 0.5t42 -3t33 -18.5t15.5 -46q-40 -16 -73.5 -43.5t-66.5 -59t-67 -63.5t-74 -58.5t-88.5 -43t-109.5 -16.5q-11 2 -15 6q-7 5 -11.5 15.5t-4.5 32.5q0 21 4.5 31.5t11.5 15.5q4 4 15 4q47 1 87 15t73.5 37.5t61 56t48.5 70.5q-15 26 -31.5 31.5
t-33 -1.5t-33.5 -23t-32.5 -33t-29 -31t-23.5 -18q-11 -5 -23 -4t-12 9q-2 47 7.5 85t27.5 64.5t44 40t56 11.5q21 -2 40 -12t38 -21.5t39 -21t43 -9.5z" />
    <glyph glyph-name="uniFEA4" unicode="&#x62d;" horiz-adv-x="429" arabic-form="medial" 
d="M-24 55q0 15 3.5 25t8.5 15q3 4 7 7t8 3q53 -1 85.5 11.5t57.5 36t48.5 55.5t58.5 71q-16 26 -32.5 31.5t-34 -1.5t-34.5 -23t-32.5 -33t-29.5 -31.5t-25 -18.5q-9 -5 -21.5 -4t-14.5 10q-2 47 7.5 84.5t28.5 64t46.5 40t60.5 11.5q20 -2 39 -12t38 -21.5t39 -20.5t41 -9
q21 -1 41 -1t35.5 -6t25 -21.5t10.5 -47.5q-29 -17 -55 -34t-50 -38t-29 -23q-6 -6 -18 -31q5 -11 17 -17.5t28 -11.5q8 -3 21 -5.5t33 -4.5q17 -1 28.5 -0.5t16.5 0.5q6 -2 10.5 -5l7.5 -5q7 -6 12.5 -17.5t6.5 -31.5q0 -27 -9.5 -36.5t-31.5 -9.5q-109 10 -137 18
q-13 3 -23 7t-17 8q-6 5 -10.5 8.5t-8.5 7t-7.5 8t-9.5 12.5q-12 -14 -48 -31q-19 -9 -34 -15.5t-27 -10.5q-24 -7 -50 -9.5t-57 -2.5q-5 1 -12 6q-5 5 -8.5 15.5t-3.5 33.5z" />
    <glyph glyph-name="uni062E" unicode="&#x62e;" horiz-adv-x="684" arabic-form="isolated" 
d="M678 -74q1 -15 -14 -37t-35 -42t-40.5 -34.5t-30.5 -12.5q-29 -7 -58 -23t-58 -34.5t-58.5 -36t-60.5 -27t-64 -7.5t-68 22q-24 13 -54 45t-56.5 72.5t-45.5 84t-20 80.5q-5 59 12 112.5t47 100.5t70.5 88.5t83.5 78t84.5 68t75.5 58.5q-32 21 -60.5 20t-52.5 -15
t-41 -37t-25 -47q-3 -13 -23.5 -17.5t-42.5 10.5q-17 27 -19.5 65t8.5 74t35 62.5t61 30.5q13 1 31.5 -2.5t39.5 -9.5t43.5 -13t45.5 -11q41 -9 87.5 -18t81 -25.5t47.5 -45t-12 -76.5q-75 -22 -152 -62t-143 -94t-115 -121t-70 -143q-8 -29 3.5 -63t37 -62.5t61 -45.5
t75.5 -12q46 4 94.5 18.5t97.5 31t98.5 31.5t98.5 21zM377 806q-7 -10 -23 -23t-35 -23.5t-39 -16.5t-37 -0.5t-28 24.5t-12 58q-1 45 15 65.5t40 24t50.5 -7.5t46.5 -28t27.5 -37t-5.5 -36z" />
    <glyph glyph-name="uniFEA6" unicode="&#x62e;" horiz-adv-x="627" arabic-form="final" 
d="M722 -282q4 -22 -10.5 -42t-36 -39.5t-43 -40t-31.5 -42.5q-43 -35 -91.5 -63.5t-102.5 -43.5t-112.5 -13t-119.5 29q-31 12 -59 34.5t-50.5 51t-37 61t-17.5 64.5q-11 72 1 132.5t41 110t71 89.5t91 73.5t102 60t104 49.5q-27 39 -52 52t-50 8.5t-50.5 -20.5t-52 -34.5
t-55 -35t-59.5 -20.5q-26 45 -20.5 90.5t30 82.5t62 61.5t74.5 27.5t67 -11t56.5 -35t52 -44t54.5 -39q16 -8 31 -11.5t29 -6.5t26.5 -7.5t24.5 -15.5q7 -6 11 -18.5t4.5 -26t-2 -25t-7.5 -16.5q-30 -9 -43 -16t-14.5 -11.5t6 -7t19.5 -3.5q13 -2 24.5 -2h39.5q5 -1 8 -1
t5 -3q5 -5 9.5 -16.5t4.5 -30.5q0 -22 -5.5 -32.5t-10.5 -15.5q-6 -5 -14 -6h-79q-107 0 -183.5 -20.5t-128 -54t-80 -76t-38 -86t-2.5 -84.5t26.5 -72t49 -47.5t65.5 -11.5q57 8 118.5 29.5t122 47t118.5 51t109 42.5zM289 603q-7 -10 -22.5 -23t-34.5 -24t-39.5 -16.5
t-37 -0.5t-28 24.5t-12.5 58.5q-1 45 15.5 65.5t40 24t50 -7.5t46.5 -28t27.5 -37t-5.5 -36z" />
    <glyph glyph-name="uniFEA7" unicode="&#x62e;" horiz-adv-x="488" arabic-form="initial" 
d="M279 623q-7 -10 -22 -22t-33 -22.5t-37.5 -15.5t-35.5 0.5t-26.5 23.5t-11.5 55q-1 43 14.5 62.5t38.5 22.5t48.5 -7t44 -26.5t26 -36t-5.5 -34.5zM0 0h-2h2zM352 354q20 -2 43 -0.5t42.5 -2.5t32.5 -18t14 -45q-40 -16 -74.5 -43t-68 -58.5t-69 -64t-76 -59t-89.5 -44
t-110 -19.5q-3 0 -8 2t-9 7.5t-7 16t-3 27.5q0 21 4.5 31.5t9.5 15.5q8 5 16 5q94 2 162 52.5t111 130.5q-15 25 -31 30.5t-33 -1.5t-34.5 -23t-33 -33t-29.5 -31t-24 -18q-11 -5 -24 -4t-13 9q-2 47 8 84.5t28.5 64t45 39.5t58.5 12q21 -2 40 -12t38 -21.5t39.5 -20.5
t43.5 -9zM-6 0h4h-1h-3z" />
    <glyph glyph-name="uniFEA8" unicode="&#x62e;" horiz-adv-x="437" arabic-form="medial" 
d="M281 727q-7 -9 -21.5 -22t-33 -23.5t-38.5 -16t-36.5 -0.5t-27.5 23.5t-12 56.5q-1 44 14.5 64.5t39 23.5t49.5 -7t45 -27t26.5 -37t-5.5 -35zM-26 56q0 16 4 26.5t9 16.5q3 2 7 4t8 2q54 -2 87 11.5t58.5 38t49.5 58.5t59 74q-15 26 -32.5 32t-35 -1.5t-35 -23.5
t-33.5 -33.5t-30 -32.5t-25 -19q-9 -5 -22 -4t-16 10q-2 48 8 86.5t29.5 65.5t47 40.5t62.5 12.5q21 -2 40.5 -12.5t39 -22.5t39.5 -21.5t42 -9.5q22 -1 42 -1t35.5 -6t25.5 -21.5t11 -48.5q-29 -18 -56 -35t-51 -38q-11 -10 -18 -16t-12 -8q-2 -2 -7.5 -10t-11.5 -22
q5 -10 17.5 -16.5t28.5 -12.5t55 -11q20 -2 31.5 -2.5t14.5 -0.5q6 -1 10 -2.5t9 -3.5q7 -7 13 -18.5t6 -32.5q0 -27 -9.5 -37.5t-31.5 -10.5q-57 6 -91.5 11t-48.5 8q-28 9 -42 17q-13 9 -19 15.5t-17 21.5q-8 -11 -49 -33q-20 -9 -35 -15.5t-28 -10.5q-24 -8 -50.5 -11
t-56.5 -3q-5 1 -8 3l-6 4q-5 6 -8.5 16.5t-3.5 32.5z" />
    <glyph glyph-name="uni062F" unicode="&#x62f;" horiz-adv-x="349" arabic-form="isolated" 
d="M-49 -70q4 10 24.5 24.5t49.5 32t62 37.5t62 41.5t49.5 44.5t24.5 47q4 27 -13 46t-41 34.5t-49 31t-36 36.5q-6 8 -4 17t13 16q33 8 72.5 1.5t75 -29.5t60.5 -62.5t28 -97.5q1 -65 -20 -104t-54.5 -61.5t-74 -34t-78.5 -20.5q-62 -6 -101 -7t-50 7z" />
    <glyph glyph-name="uniFEAA" unicode="&#x62f;" horiz-adv-x="400" arabic-form="final" 
d="M400 105q5 0 11 -1t10 -4q5 -5 8.5 -14t3.5 -32t-6.5 -34t-14.5 -16q-9 -4 -21 -4q-16 0 -40 7.5t-41 23.5q-26 -9 -61 -19t-67 -18q-28 -7 -59.5 -10t-62 -3t-58.5 2t-49 5q23 24 49 38.5t52.5 24.5t52.5 19t50.5 21.5t46 31.5t38.5 50q6 11 5.5 28t-3 36t-5.5 39
t-2.5 38t5.5 31.5t19 20.5q34 -7 52.5 -29t28 -51t13 -61t7.5 -58.5t12 -44t26 -17.5z" />
    <glyph glyph-name="uni0630" unicode="&#x630;" horiz-adv-x="358" arabic-form="isolated" 
d="M177 489q-13 -8 -34.5 -1t-39.5 23t-27.5 38t1.5 46q13 18 38 34t48 15q24 -2 36.5 -21.5t14.5 -44.5t-7.5 -50.5t-29.5 -38.5zM-47 -74q4 10 24.5 24.5t49.5 32t62 37.5t62 42t49.5 45t24.5 46q4 27 -13 45.5t-41.5 34.5t-49 31.5t-36.5 36.5q-5 8 -3 17t13 16
q33 9 72.5 2.5t75 -29.5t60.5 -62.5t28 -97.5q1 -65 -20 -104t-54.5 -62t-74.5 -34.5t-78 -20.5q-62 -6 -101 -6.5t-50 6.5z" />
    <glyph glyph-name="uniFEAC" unicode="&#x630;" horiz-adv-x="396" arabic-form="final" 
d="M254 509q-13 -8 -35 -1t-40.5 22.5t-28 38t2.5 45.5q13 19 37.5 35t47.5 15q24 -3 36.5 -22.5t15 -44.5t-6.5 -50t-29 -38zM396 105h8.5t7.5 -2q5 -3 10.5 -14.5t5.5 -34.5q0 -24 -6 -35t-14 -16q-6 -2 -10.5 -2.5t-10.5 -0.5q-17 0 -40.5 6.5t-41.5 23.5
q-25 -10 -60 -20t-67 -17q-29 -7 -60 -10t-61.5 -3t-58.5 2t-50 5q23 24 49 38.5t52.5 24.5t53 19t51 21.5t46 31.5t38.5 49q8 17 4 45.5t-8 58.5t-1.5 55t23.5 36q34 -7 53 -29.5t28.5 -51.5t13 -60.5t7.5 -58t12 -44t26 -17.5z" />
    <glyph glyph-name="uni0631" unicode="&#x631;" horiz-adv-x="435" arabic-form="isolated" 
d="M376 198q28 -31 33.5 -73t-2 -83.5t-23 -76t-27.5 -51.5q-32 -47 -73.5 -76.5t-86 -46.5t-89.5 -24t-85 -7t-71.5 3.5t-48.5 6.5q1 10 33 30.5t79.5 49.5t102.5 65.5t102 79.5t77.5 91t29.5 100q0 7 6 11.5t14 6.5t16 1t13 -7z" />
    <glyph glyph-name="uniFEAE" unicode="&#x631;" horiz-adv-x="421" arabic-form="final" 
d="M338 242q3 -3 5.5 -25t10.5 -47t23.5 -45t43.5 -20q2 -1 3.5 -3.5t3.5 -4.5q3 -5 6 -16t3 -29q0 -21 -3 -31t-6 -15q-3 -4 -7 -6h-12t-16 0.5t-15.5 1.5t-10.5 4q-9 -30 -22.5 -57.5t-23.5 -42.5q-31 -44 -70.5 -72.5t-82 -44.5t-85.5 -22.5t-80.5 -7t-67.5 3t-47 7.5
q1 10 31.5 25t74.5 38t94.5 57t93 81t69 109.5t22.5 143.5q-1 10 6.5 19t18 13.5t22 1.5t18.5 -16z" />
    <glyph glyph-name="uni0632" unicode="&#x632;" horiz-adv-x="435" arabic-form="isolated" 
d="M356 198q28 -31 33.5 -73t-2 -83.5t-23 -76t-28.5 -51.5q-32 -47 -73 -77t-85.5 -47t-89.5 -23.5t-85 -7t-71.5 3.5t-49.5 7q1 10 33 30.5t80 49.5t103 65.5t102 79t77.5 90.5t29.5 100q0 7 5.5 12t13.5 7t16.5 1t13.5 -7zM363 323q-12 -9 -34 -3t-41.5 22.5t-29.5 40
t3 48.5q4 10 14 19.5t22.5 17t26.5 11.5t26 3q24 -2 37 -22t14.5 -46t-8 -52t-30.5 -39z" />
    <glyph glyph-name="uniFEB0" unicode="&#x632;" horiz-adv-x="432" arabic-form="final" 
d="M306 342q-13 -8 -34.5 -1t-40.5 23t-28.5 38.5t2.5 46.5q6 9 16 18.5t21.5 16.5t24 11t24.5 3q24 -2 37 -21.5t15 -45t-7.5 -51t-29.5 -38.5zM345 244q3 -3 6 -25t11 -47.5t24 -46t45 -20.5q2 -1 3.5 -3t3.5 -4q3 -5 5.5 -16t2.5 -30q0 -21 -2.5 -31t-5.5 -15
q-5 -5 -7 -6q-10 0 -28 -0.5t-27 6.5q-10 -30 -23.5 -58.5t-22.5 -42.5q-32 -44 -72 -72.5t-83 -45t-86 -23t-81 -7t-68 3t-47 7.5q1 10 31 25t74.5 38.5t96 57.5t94 81.5t69.5 110.5t23 145q-1 10 6.5 19.5t18.5 14t22 1.5t17 -17z" />
    <glyph glyph-name="uni0698" unicode="&#x698;" horiz-adv-x="438" arabic-form="isolated" 
d="M344 559q-18 -11 -34.5 -10.5t-29 10t-19.5 25.5t-5 36q6 24 27 27.5t39.5 -7.5t28 -32.5t-6.5 -48.5zM471 450q1 -17 -15 -25t-37.5 -14.5t-42 -14.5t-27.5 -25q-31 -8 -66 -9.5t-63 7t-43 28t-7 53.5q77 16 153.5 18t147.5 -18zM334 198q29 -31 34.5 -73t-2 -83.5
t-23 -76.5t-28.5 -52q-32 -47 -73 -76.5t-85.5 -46.5t-89.5 -23.5t-85 -6.5t-71.5 3.5t-48.5 6.5q1 10 33 30.5t79.5 49.5t102.5 65.5t102 79t77.5 90.5t29.5 100q0 7 6 12.5t13.5 7.5t15.5 0.5t13 -7.5z" />
    <glyph glyph-name="uniFB8B" unicode="&#x698;" horiz-adv-x="415" arabic-form="final" 
d="M277 556q-17 -11 -32.5 -10t-27 10t-18.5 24.5t-5 33.5q6 23 26 26.5t38 -7t26.5 -31.5t-7.5 -46zM399 452q1 -16 -14.5 -24t-35.5 -14t-39.5 -14t-26.5 -24q-30 -7 -63 -8.5t-60 6.5t-41.5 26.5t-6.5 51.5q74 15 147 17t140 -17zM329 244q3 -3 6 -25t11 -47.5t24 -46
t45 -20.5q3 0 4.5 -2.5t2.5 -4.5q3 -5 5.5 -16t2.5 -30q0 -21 -2.5 -31t-5.5 -15q-5 -5 -7 -6q-10 0 -28 -0.5t-28 6.5q-9 -30 -22.5 -58.5t-22.5 -42.5q-32 -44 -72 -72.5t-83 -45t-86 -23t-81 -7t-68 3t-47 7.5q1 10 31 25t74.5 38.5t96 57.5t94 81.5t69.5 110.5t23 145
q-1 10 6.5 19.5t18.5 14t22 1.5t17 -17z" />
    <glyph glyph-name="uni0633" unicode="&#x633;" horiz-adv-x="1300" arabic-form="isolated" 
d="M1282 280q-2 -41 -15.5 -82t-36.5 -61q-61 -42 -127 -36t-117 57q-8 -14 -26 -27.5t-43 -21.5t-55 -6.5t-61 19.5q5 -29 -9.5 -69.5t-43.5 -84t-71 -85.5t-92.5 -74.5t-107 -50.5t-115.5 -13t-118 37t-114 100q-55 89 -65.5 152t16 117.5t86.5 109t146 125.5q6 -2 7 -14
t-10 -36.5t-38.5 -63.5t-78.5 -95q-15 -27 -20 -64t3 -76.5t30.5 -77.5t62.5 -66q30 -15 70 -16.5t84 8.5t87.5 32t81 54t64 74t36.5 92q12 51 12 89.5t-1 66.5t2.5 46t22.5 28q28 9 43.5 3t23.5 -20.5t10.5 -35.5t4 -41.5t4 -38.5t11.5 -27q40 -2 62 9.5t30.5 34t6 56
t-10.5 75.5q-3 10 9 18.5t28.5 12.5t33 2.5t23.5 -10.5q19 -32 25 -63t7.5 -57.5t4 -46.5t14.5 -28q35 -1 58.5 10t39.5 37t25.5 68t15.5 103q1 6 8.5 13t17.5 8.5t22 -4.5t21 -24.5t14 -52.5t2 -88z" />
    <glyph glyph-name="uniFEB2" unicode="&#x633;" horiz-adv-x="1268" arabic-form="final" 
d="M1295 51q0 -20 -3.5 -30t-7.5 -15q-2 -2 -7.5 -3.5t-8.5 -2.5q-20 0 -33 5t-21 11.5t-12 12.5t-7 8q-61 -42 -127 -36t-117 57q-8 -14 -26 -27.5t-43 -21.5t-55 -6.5t-61 19.5q5 -29 -9.5 -69.5t-43.5 -84t-71 -85.5t-92.5 -74.5t-107 -50.5t-115.5 -13.5t-118 37
t-114 100.5q-55 88 -65.5 151.5t16 118t86.5 109t146 125.5q6 -2 7 -14t-10 -36.5t-38.5 -63.5t-78.5 -95q-15 -27 -20 -64t3 -76.5t30.5 -77.5t62.5 -66q30 -15 70 -16.5t84 8.5t87.5 32t81 54t64 74t36.5 92q12 51 12 89.5t-1 66.5t2.5 46t22.5 27q28 9 43.5 3t23.5 -20.5
t10.5 -35.5t4 -41.5t4 -38t11.5 -26.5q40 -2 62 9.5t30.5 34t6 56t-10.5 75.5q-3 10 9 18.5t28.5 12.5t33 2.5t23.5 -10.5q19 -32 25 -63.5t7.5 -58t4 -46t14.5 -27.5q35 -2 58.5 9t39.5 37t25.5 68.5t15.5 103.5q1 6 7.5 13t16 8.5t20 -4.5t20 -24.5t15.5 -52.5t6 -88
q0 -12 -2 -26t-1 -25t5.5 -18t18.5 -6q6 -1 10 -7q4 -5 10.5 -16t6.5 -31z" />
    <glyph glyph-name="uniFEB3" unicode="&#x633;" horiz-adv-x="717" arabic-form="initial" 
d="M-30 50q0 24 5.5 34.5t12.5 15.5q10 5 18 5q34 0 56 22t39 55.5t32.5 72t36.5 71.5q9 13 28 15.5t39 -3t36 -17t19 -25.5q-2 -29 -17 -58t-34.5 -55t-38.5 -46.5t-28 -31.5q21 -6 45.5 -3.5t47.5 13t42.5 28.5t30.5 44q9 21 11.5 45.5t8.5 45.5t20.5 34t47.5 11
q23 -2 42 -19t21 -36q3 -15 -2.5 -28t-12 -24t-10 -21.5t3.5 -22.5q30 0 49.5 17.5t33 43t23.5 54t22.5 49.5t29.5 29.5t44 -5.5q16 -17 16 -49t-13.5 -70t-39 -75.5t-60.5 -65t-79.5 -38.5t-94.5 4q-30 -8 -61 -23t-62.5 -27.5t-62 -18.5t-57.5 5q-18 10 -30.5 23t-35.5 20
q-28 -30 -47.5 -37.5t-44.5 -7.5q-9 0 -14 5q-6 6 -11 15.5t-5 29.5z" />
    <glyph glyph-name="uniFEB4" unicode="&#x633;" horiz-adv-x="697" arabic-form="medial" 
d="M712 57q-1 -17 -2.5 -28.5t-3.5 -21.5q-4 -7 -6 -7q-27 0 -45.5 2.5t-32.5 8.5t-26 16.5t-25 27.5q-20 -9 -43 -20.5t-49.5 -14.5t-55.5 9t-62 51q-22 -1 -38 -8t-30 -15.5t-28.5 -16.5t-33.5 -10.5t-44.5 2.5t-61.5 23q-21 -23 -48 -39t-74 -16q-5 0 -6.5 1.5t-4.5 5.5
q-5 6 -5.5 15.5t-0.5 27.5q0 13 -0.5 20.5t-0.5 12t0.5 7.5t2.5 7q2 2 4 5t7 3q29 0 49.5 12.5t36 31.5t27 42t22 44.5t22 38.5t26.5 25q12 6 22 2.5t17.5 -11.5t11.5 -17t6 -15q3 -14 -6.5 -29t-20 -29t-17 -25.5t2.5 -17.5q21 -13 46.5 -3t49.5 35t42.5 61t26.5 77
q1 15 15.5 20.5t31 3.5t30.5 -10.5t15 -21.5q0 -24 -2 -39t-6 -28l-8 -26t-8 -32q-1 -6 -1 -14t2 -15.5t8.5 -13.5t19.5 -8q23 -1 39 15.5t27.5 42t21 54.5t21 51.5t26 34.5t36.5 4q21 -7 25.5 -27.5t1.5 -47t-9.5 -55.5t-6.5 -53.5t11.5 -40.5t43.5 -16q2 0 4 -2
q5 -5 7 -15.5t4 -30.5z" />
    <glyph glyph-name="uni0634" unicode="&#x634;" horiz-adv-x="1308" arabic-form="isolated" 
d="M948 576q12 -23 33.5 -31.5t51.5 -12.5q12 -3 15.5 -7t2 -8.5t-7.5 -8.5t-13 -7q-21 -8 -41 -5.5t-38 11t-32.5 21t-24.5 24.5q-19 -7 -37.5 -5t-38.5 -4q2 12 10 19t18.5 12t21 11t17.5 16q-7 15 -7 36t4.5 43.5t12.5 44t17 38.5q22 39 60 72.5t79.5 54t80.5 25
t64 -14.5q23 -22 23.5 -52.5t-16 -64t-45.5 -67.5t-64.5 -62.5t-73.5 -49.5t-72 -28zM927 618q12 4 34 13.5t46.5 22t49 28.5t41.5 34t23.5 37t-4.5 38q-8 16 -26.5 20t-41.5 -2.5t-47 -23t-42.5 -41t-28 -56.5t-4.5 -70zM1282 244q-2 -41 -15.5 -82t-36.5 -61
q-61 -42 -127 -36t-117 57q-8 -14 -26 -27.5t-43 -21.5t-55 -6.5t-61 19.5q5 -29 -9.5 -69.5t-43.5 -84t-71 -85.5t-92.5 -74.5t-107 -50.5t-115.5 -13t-118 37t-114 100q-55 89 -65.5 152t16 117.5t86.5 109t146 125.5q6 -2 7 -14t-10 -36.5t-38.5 -63.5t-78.5 -95
q-15 -27 -20 -64t3 -76.5t30.5 -77.5t62.5 -66q30 -15 70 -16.5t84 8.5t87.5 32t81 54t64 74t36.5 92q12 51 12 89.5t-1 66.5t2.5 46t22.5 28q28 9 43.5 3t23.5 -20.5t10.5 -35.5t4 -41.5t4 -38.5t11.5 -27q40 -2 62 9.5t30.5 34t6 56t-10.5 75.5q-3 10 9 18.5t28.5 12.5
t33 2.5t23.5 -10.5q19 -32 25 -63t7.5 -57.5t4 -46.5t14.5 -28q35 -1 58.5 10t39.5 37t25.5 68t15.5 103q1 6 8.5 13t17.5 8.5t22 -4.5t21 -24.5t14 -52.5t2 -88z" />
    <glyph glyph-name="uniFEB6" unicode="&#x634;" horiz-adv-x="1269" arabic-form="final" 
d="M935 501q12 -23 34 -32t52 -15q12 -2 16 -5.5t1.5 -7.5t-8.5 -8.5t-13 -7.5q-21 -8 -41 -5.5t-37.5 11t-32 21t-24.5 25.5q-19 -7 -37.5 -5.5t-39.5 -3.5q2 12 10.5 19t19 12t21 10.5t16.5 14.5q-6 16 -6 37.5t4.5 44t12 44t16.5 38.5q22 39 60 72t80 54t81 25.5
t63 -14.5q23 -22 23.5 -53t-16 -64.5t-45.5 -67.5t-64.5 -62.5t-73.5 -49t-72 -27.5zM914 542q12 5 33.5 14.5t46.5 22.5t50 28.5t42.5 33t23.5 36.5t-5 39q-8 16 -26.5 20t-41.5 -2.5t-46.5 -23.5t-42.5 -41.5t-29 -56.5t-5 -70zM1295 51q0 -20 -3.5 -30t-7.5 -15
q-2 -2 -7.5 -3.5t-8.5 -2.5q-20 0 -33 5t-21 11.5t-12 12.5t-7 8q-61 -42 -127 -36t-117 57q-8 -14 -26 -27.5t-43 -21.5t-55 -6.5t-61 19.5q5 -29 -9.5 -69.5t-43.5 -84t-71 -85.5t-92.5 -74.5t-107 -50.5t-115.5 -13.5t-118 37t-114 100.5q-55 88 -65.5 151.5t16 118
t86.5 109t146 125.5q6 -2 7 -14t-10 -36.5t-38.5 -63.5t-78.5 -95q-15 -27 -20 -64t3 -76.5t30.5 -77.5t62.5 -66q30 -15 70 -16.5t84 8.5t87.5 32t81 54t64 74t36.5 92q12 51 12 89.5t-1 66.5t2.5 46t22.5 27q28 9 43.5 3t23.5 -20.5t10.5 -35.5t4 -41.5t4 -38t11.5 -26.5
q40 -2 62 9.5t30.5 34t6 56t-10.5 75.5q-3 10 9 18.5t28.5 12.5t33 2.5t23.5 -10.5q19 -32 25 -63.5t7.5 -58t4 -46t14.5 -27.5q35 -2 58.5 9t39.5 37t25.5 68.5t15.5 103.5q1 6 7.5 13t16 8.5t20 -4.5t20 -24.5t15.5 -52.5t6 -88q0 -12 -2 -26t-1 -25t5.5 -18t18.5 -6
q6 -1 10 -7q4 -5 10.5 -16t6.5 -31z" />
    <glyph glyph-name="uniFEB7" unicode="&#x634;" horiz-adv-x="716" arabic-form="initial" 
d="M-30 51q0 23 6 33.5t13 15.5t18 5q34 0 55.5 22.5t38.5 55.5t32.5 72t36.5 72q9 13 28 15t39.5 -3.5t36.5 -17t18 -24.5q8 -30 -1.5 -57t-26 -51t-34.5 -44t-26 -36q42 -12 79 7t57 72q9 20 11.5 44.5t8.5 45.5t20 34t47 11q24 -2 42.5 -19.5t21.5 -34.5q3 -16 -3 -28.5
t-12 -24t-9.5 -22t3.5 -22.5q30 0 49.5 18t33 43.5t23.5 53.5t22.5 49t30 29.5t44.5 -5.5q15 -17 15 -49t-13.5 -70t-39 -76t-61 -65t-80 -38.5t-95.5 3.5q-29 -8 -60 -22.5t-62 -27t-61.5 -18.5t-57.5 5q-17 9 -30 22.5t-38 20.5q-26 -30 -46.5 -37.5t-43.5 -7.5
q-10 2 -14 5q-6 5 -11 15.5t-5 30.5zM419 510q11 -24 33.5 -32t51.5 -13q12 -2 16 -6t2.5 -8.5t-8 -9.5t-13.5 -8q-21 -7 -41 -4t-38 11.5t-32.5 21t-24.5 24.5q-19 -7 -37.5 -5.5t-38.5 -3.5q2 12 10.5 19t19 12t20.5 10.5t16 15.5q-6 16 -5.5 37.5t5 44t12 43.5t16.5 38
q22 39 60 72t80 54t81.5 25.5t63.5 -14.5q23 -22 23 -53t-16.5 -64.5t-46 -67.5t-65 -62.5t-73.5 -49t-71 -27.5zM397 552q11 5 33 14.5t47 22t50 28t42.5 33t24 36.5t-4.5 39q-8 16 -27 20t-42 -2.5t-46.5 -23t-42.5 -41t-29 -56.5t-5 -70z" />
    <glyph glyph-name="uniFEB8" unicode="&#x634;" horiz-adv-x="697" arabic-form="medial" 
d="M385 507q11 -23 32.5 -31.5t50.5 -13.5q13 -2 16.5 -5.5t2 -8t-7.5 -9t-13 -7.5q-21 -7 -41.5 -4.5t-38 11t-32.5 21t-25 24.5q-9 -4 -18 -5t-18.5 -1t-19 -0.5t-19.5 -3.5q2 12 10 19t18.5 12t21 10.5t16.5 15.5q-6 16 -6 37.5t4.5 44t12.5 44t17 38.5q22 39 60 72
t79.5 53.5t80.5 24.5t64 -15q23 -22 23 -52t-16.5 -63.5t-45.5 -67.5t-64 -62.5t-73 -49.5t-71 -28zM363 549q12 4 33.5 13.5t46 22.5t49 29t41.5 34t24 37t-4 38q-8 16 -26.5 20t-41.5 -2.5t-47 -23.5t-42.5 -41.5t-28 -56.5t-4.5 -70zM712 57q-1 -17 -2.5 -28.5
t-3.5 -21.5q-4 -7 -6 -7q-27 0 -45.5 2.5t-32.5 8.5t-26 16.5t-25 27.5q-20 -9 -43 -20.5t-49.5 -14.5t-55.5 9t-62 51q-22 -1 -38 -8t-30 -15.5t-28.5 -16.5t-33.5 -10.5t-44.5 2.5t-61.5 23q-21 -23 -48 -39t-74 -16q-5 0 -6.5 1.5t-4.5 5.5q-5 6 -5.5 15.5t-0.5 27.5
q0 13 -0.5 20.5t-0.5 12t0.5 7.5t2.5 7q2 2 4 5t7 3q29 0 49.5 12.5t36 31.5t27 42t22 44.5t22 38.5t26.5 25q12 6 22 2.5t17.5 -11.5t11.5 -17t6 -15q3 -14 -6.5 -29t-20 -29t-17 -25.5t2.5 -17.5q21 -13 46.5 -3t49.5 35t42.5 61t26.5 77q1 15 15.5 20.5t31 3.5
t30.5 -10.5t15 -21.5q0 -24 -2 -39t-6 -28l-8 -26t-8 -32q-1 -6 -1 -14t2 -15.5t8.5 -13.5t19.5 -8q23 -1 39 15.5t27.5 42t21 54.5t21 51.5t26 34.5t36.5 4q21 -7 25.5 -27.5t1.5 -47t-9.5 -55.5t-6.5 -53.5t11.5 -40.5t43.5 -16q2 0 4 -2q5 -5 7 -15.5t4 -30.5z" />
    <glyph glyph-name="uni0635" unicode="&#x635;" horiz-adv-x="1202" arabic-form="isolated" 
d="M1088 371q33 -8 53.5 -29t28 -50.5t1 -64.5t-28.5 -70t-60 -67.5t-94 -56.5q-22 -9 -62 -18t-83.5 -13t-82 -2t-57.5 14q-26 -66 -72 -121.5t-103.5 -96.5t-122 -64t-127.5 -24.5t-120 22t-99 75.5q-43 52 -45 103t22.5 99.5t70 93t97 83.5t103 72t88.5 58
q-16 -24 -40.5 -47.5t-51.5 -47.5t-54 -48.5t-48 -50.5q-2 -28 -14.5 -50t-26.5 -43.5t-24 -44.5t-7 -53q2 -20 15 -37t32.5 -30t43.5 -22.5t48 -13.5q32 -5 69 5.5t74.5 31.5t72.5 50t63.5 61t48.5 63.5t26 58.5q9 36 16.5 78t7.5 69q-2 15 7 24.5t21 13.5t23 1.5t13 -11.5
q8 -21 12.5 -44t9 -45t10.5 -41.5t16 -32.5q14 -9 24.5 -4t15.5 16q6 49 39.5 98t78.5 86t92 56.5t80 10.5zM930 133q7 -8 27.5 4.5t41 34t33.5 45.5t4 39q-6 9 -25 -3t-38.5 -33t-33.5 -46t-9 -41z" />
    <glyph glyph-name="uniFEBA" unicode="&#x635;" horiz-adv-x="1176" arabic-form="final" 
d="M1176 105q5 -1 7.5 -3t5.5 -5q6 -6 10.5 -18t4.5 -32t-4.5 -29t-10.5 -14q-5 -4 -13 -4h-27h-27q-43 0 -90.5 6t-78.5 20q-26 -9 -63 -16t-74.5 -10t-70 0t-49.5 14q-26 -66 -72.5 -121.5t-104 -96t-122 -64t-127 -24.5t-120 22t-99.5 75q-43 52 -45 103t23 99.5t70 93
t96.5 83.5t102.5 72t88 58q-16 -24 -40.5 -47.5t-51.5 -47t-53.5 -48t-46.5 -51.5q-2 -29 -15 -51t-27 -43t-24.5 -44.5t-7.5 -53.5q2 -20 15.5 -36.5t33 -29.5t43.5 -22t48 -13q33 -5 70 5.5t74.5 31t72.5 49.5t63.5 60.5t48 63t25.5 58.5q10 37 17 79t7 70q-2 15 7 24
t21 13t22.5 1.5t12.5 -11.5q8 -21 13 -44t9.5 -45t10.5 -41.5t16 -32.5q15 -10 24.5 -4.5t14.5 16.5q4 33 21.5 66t42.5 62.5t55.5 54.5t61.5 42t59.5 24.5t50.5 1.5q38 -10 60.5 -38.5t25 -66.5t-15.5 -80.5t-61 -80.5h39h25h23zM924 132q4 -5 15 -0.5t24.5 15t27.5 25
t24 30t14.5 30t-1.5 24.5q-4 6 -14 2t-22.5 -14t-26 -24.5t-24 -30t-16 -31t-1.5 -26.5z" />
    <glyph glyph-name="uniFEBB" unicode="&#x635;" horiz-adv-x="907" arabic-form="initial" 
d="M568 351q73 46 133 58t101.5 1t62.5 -40t17 -64q-10 -64 -56.5 -116t-117 -91t-158.5 -64t-182 -35q-14 -11 -17.5 -25.5t-8.5 -37.5q-2 -9 -7.5 -13.5t-12 -5t-12.5 2.5t-7 9q-8 19 -11.5 32.5t1.5 37.5q-16 0 -34 3t-34.5 10.5t-30.5 20t-23 30.5q-5 9 -19 0t-34.5 -23
t-45.5 -27.5t-52 -13.5h-12q-5 0 -8.5 0.5t-8.5 4.5q-6 3 -10.5 13t-4.5 30q0 23 3 35.5t9 17.5q3 4 11 4h25q26 0 46 16.5t35 41t27 53.5t23 54t23 42.5t27 18.5q36 0 49 -15.5t13.5 -39t-6 -52t-9 -53.5t4 -43t33.5 -22q10 -2 27.5 6t31.5 19q26 19 46.5 45t44 55.5
t53.5 60t75 59.5zM472 139q3 -6 25.5 -1.5t53 17t63.5 30.5t57.5 39.5t34.5 45t-5 45.5q-10 15 -32 11.5t-49.5 -19t-55.5 -38.5t-50.5 -47.5t-34.5 -47t-7 -35.5z" />
    <glyph glyph-name="uniFEBC" unicode="&#x635;" horiz-adv-x="861" arabic-form="medial" 
d="M860 105q5 0 8 -1.5t8 -3.5q5 -6 10.5 -15t5.5 -28t-4.5 -30.5t-10 -17.5t-11 -7.5t-6.5 -1.5h-43.5t-73 0.5t-88 1.5t-86 3t-68.5 5.5t-35 8.5q-20 -6 -35 -9.5t-28.5 -5t-27.5 -2.5t-30 -2q-14 -14 -18 -27t-9 -36q-1 -9 -6.5 -13t-12.5 -4.5t-13 2t-8 8.5
q-3 10 -5.5 17.5t-4 15t-1.5 16t2 21.5q-15 0 -33 3t-35 10.5t-31 20t-21 30.5q-5 8 -19.5 -1t-35 -23t-45.5 -27t-52 -13q-8 0 -11 5q-6 4 -10 14t-4 30q0 25 4 36t10 17q3 3 14 3q26 0 46 16t35.5 40.5t28 53t23.5 54t22.5 43t25.5 19.5q36 -1 49.5 -17t14 -40t-6 -52
t-9 -53t3.5 -43.5t33 -22.5q9 0 28 7.5t33 16.5q25 19 45.5 45.5t44 56.5t54 60.5t74.5 59.5q73 47 133 59.5t102 1.5t63 -40t17 -64q-9 -60 -51 -112.5t-106 -88.5h157zM447 139q3 -6 25.5 -1t53.5 17t64.5 30.5t58 40t35 44.5t-4.5 46q-10 14 -32.5 10t-50 -19.5
t-56 -38.5t-51 -47.5t-35 -46.5t-7.5 -35z" />
    <glyph glyph-name="uni0636" unicode="&#x636;" horiz-adv-x="1198" arabic-form="isolated" 
d="M1088 372q33 -8 53.5 -29.5t28 -51t1 -64.5t-28.5 -70t-60.5 -67.5t-93.5 -56.5q-22 -9 -62 -18t-83.5 -13t-82 -2t-57.5 14q-26 -66 -72 -121.5t-103.5 -96t-122 -63.5t-127.5 -24.5t-120.5 21.5t-99.5 75q-43 52 -45 103t23 99.5t70 92.5t97 83.5t103.5 72.5t88.5 58
q-16 -24 -41 -47.5t-52 -47t-53.5 -48t-46.5 -51.5q-2 -28 -15 -50t-27 -43t-24.5 -43.5t-7.5 -52.5q2 -21 15.5 -38t33 -30.5t43 -23t47.5 -13.5q32 -5 69.5 5.5t75 32t72.5 50.5t63.5 60.5t48 63t25.5 58.5q4 18 8.5 38.5t8.5 40t6 37.5t2 32q-2 15 6.5 24t20.5 13t23 2
t14 -11q7 -20 11.5 -43t9 -45.5t10.5 -42t17 -32.5q14 -10 24 -5t16 16q5 32 22 65t42 63t55 55.5t60.5 42.5t59 24.5t51.5 1.5zM930 133q6 -8 27 5t41.5 34.5t33.5 46t4 38.5q-6 8 -25 -4t-38.5 -33t-33.5 -45.5t-9 -41.5zM947 531q-13 -8 -34.5 -1t-40 22.5t-27.5 38
t2 46.5q6 9 15.5 18t21 16t24 11t24.5 3q24 -2 37 -21.5t14.5 -44.5t-7.5 -50t-29 -38z" />
    <glyph glyph-name="uniFEBE" unicode="&#x636;" horiz-adv-x="1181" arabic-form="final" 
d="M1180 105q8 -1 13 -9q6 -5 10.5 -17t4.5 -32t-4.5 -29t-10.5 -15q-2 -1 -5 -2t-8 -1h-27h-27q-43 0 -90.5 6t-78.5 20q-25 -9 -62 -16t-74.5 -10t-70.5 0t-50 14q-26 -66 -72.5 -121.5t-104 -96t-122 -64t-127 -24.5t-120 22t-99.5 75q-43 52 -45 103t23 99.5t70 93
t96.5 83.5t102.5 71.5t88 57.5q-15 -24 -39.5 -47t-51.5 -46.5t-54 -48t-47 -51.5q-2 -29 -15 -51t-27 -43t-24.5 -44t-7.5 -53q2 -20 15.5 -37t33 -30.5t43.5 -22.5t48 -13q33 -5 70 5.5t74.5 31.5t72.5 50t63.5 60.5t48 63t25.5 58.5q5 18 9.5 39t7.5 41t5 38t2 31
q-2 15 7 24t21 13t23 2t12 -11q8 -21 13 -44.5t9.5 -45.5t10.5 -41t17 -32q14 -11 23.5 -6t14.5 17q8 49 41.5 97.5t78 86t91 57t80.5 10.5q39 -10 61 -38t25 -65.5t-15.5 -80.5t-61.5 -82h39h25h23zM928 132q4 -6 15 -1.5t24.5 15t27.5 25.5t24.5 30.5t15 30t-1.5 23.5
t-25 -2.5t-38.5 -32.5t-33 -46t-8.5 -42zM995 511q-13 -8 -34.5 -1t-40 23t-28 38.5t2.5 45.5q13 18 38 34t48 15q24 -2 36.5 -21.5t14.5 -44.5t-7.5 -50.5t-29.5 -38.5z" />
    <glyph glyph-name="uniFEBF" unicode="&#x636;" horiz-adv-x="929" arabic-form="initial" 
d="M576 354q73 47 133.5 59t102.5 0.5t63.5 -40.5t17.5 -65q-10 -64 -57 -116.5t-118.5 -91.5t-160.5 -64.5t-184 -35.5q-14 -13 -18.5 -27t-9.5 -38q-1 -9 -6.5 -13t-12 -5t-12.5 2.5t-8 9.5q-8 18 -11.5 32.5t1.5 38.5q-16 0 -34 3t-35 10t-31 19.5t-23 30.5q-5 9 -19 0.5
t-35 -22.5t-46.5 -27.5t-52.5 -13.5h-11q-6 0 -9.5 0.5t-8.5 2.5q-6 5 -11 15t-5 30q0 24 3.5 36t9.5 17q3 4 12 4h25q26 0 46 16.5t35 41.5t27 54.5t24 54.5t24 42.5t27 18.5q37 0 50 -15.5t13.5 -39.5t-6 -52.5t-9.5 -53.5t3.5 -44t33.5 -23q10 -2 28.5 6t32.5 20
q26 19 47 46t44.5 56.5t54.5 60.5t76 60zM477 140q3 -6 25.5 -1.5t53.5 16.5t64.5 30.5t58 40.5t35 45.5t-4.5 45.5q-10 16 -32.5 12.5t-50 -19t-56 -39t-51 -48.5t-35 -47.5t-7.5 -35.5zM636 612q-14 -8 -36 -1t-40.5 23.5t-28 39t2.5 46.5q6 9 16 18t21.5 16t24 11.5
t24.5 3.5q24 -2 37 -21.5t15 -45t-7 -51t-29 -39.5z" />
    <glyph glyph-name="uniFEC0" unicode="&#x636;" horiz-adv-x="838" arabic-form="medial" 
d="M445 489q-13 -8 -34.5 -1t-39.5 23t-27.5 38t2.5 45q6 9 15.5 18t21 16t24 11t23.5 3q23 -2 36 -21t15 -43.5t-7 -50t-29 -38.5zM838 105q4 -1 7 -3t8 -5q5 -5 9.5 -14t4.5 -27q0 -20 -4 -31t-9.5 -16.5t-10 -7t-5.5 -1.5h-42h-69.5t-83 0.5t-81.5 2.5t-65 5.5t-33 8.5
q-20 -6 -35 -9t-28 -4.5t-26.5 -2t-29.5 -1.5q-15 -15 -19 -27.5t-9 -35.5q-1 -9 -6.5 -13t-12 -4.5t-12.5 2t-8 8.5q-3 10 -5.5 17.5t-4 15t-1.5 16t2 21.5q-16 0 -33.5 3t-34 10.5t-30.5 19.5t-21 30q-5 7 -19.5 -1.5t-34.5 -22.5t-45 -26.5t-51 -12.5q-9 0 -11 4
q-13 6 -13 43q0 26 4 37.5t9 14.5q3 3 5.5 4.5t8.5 1.5q26 0 45.5 16t35 39.5t28 52t23.5 53t22.5 41.5t25.5 19q36 -1 48.5 -17t13 -39.5t-6 -51t-9 -52t4 -43t32.5 -22.5q9 0 27.5 7.5t32.5 16.5q25 19 45.5 45t43.5 55.5t52.5 60t73.5 58.5q72 47 131.5 59.5t100.5 1.5
t62.5 -40t17.5 -64q-9 -59 -50.5 -110t-105.5 -86h141zM446 137q3 -6 25 -1.5t52.5 16.5t63 30t57 39t35 44t-4.5 45q-10 14 -32 10t-49 -18.5t-55.5 -37.5t-50.5 -46.5t-34 -45.5t-7 -35z" />
    <glyph glyph-name="uni0637" unicode="&#x637;" horiz-adv-x="493" arabic-form="isolated" 
d="M343 408q35 10 63.5 -5t45 -45t17.5 -68.5t-19 -75.5q-22 -38 -57 -69t-76 -54.5t-85 -40t-83.5 -27.5t-71.5 -16.5t-50 -6.5h-27q-8 0 -13 5q-6 5 -10 15t-4 31t5 31t11 16q2 2 5.5 4.5t8.5 2.5h31q1 0 10 17.5t21 46.5t24 68t20.5 81.5t10 86.5t-7.5 84
q-20 92 -15 160.5t19.5 113t31 64.5t19.5 14q20 -31 31 -91.5t11.5 -135.5t-10 -157.5t-32.5 -158.5q72 79 176 110zM212 157q25 16 52.5 27t52 25.5t42 35.5t22.5 56q-26 -5 -49.5 -19.5t-44.5 -34.5t-39.5 -44t-35.5 -46z" />
    <glyph glyph-name="uniFEC2" unicode="&#x637;" horiz-adv-x="476" arabic-form="final" 
d="M476 105q3 -2 5.5 -5t4.5 -7q4 -4 7 -14t3 -27q0 -18 -3 -28t-7 -15q-5 -7 -9 -9h-178q-20 0 -51.5 1.5t-62.5 3t-56 2t-33 -0.5l-32 -3q-14 -2 -25.5 -2.5t-14.5 -0.5h-24q-10 0 -15 5q-6 5 -10.5 14t-4.5 30t4.5 32t10.5 17q2 3 6 4t9 3h30q1 2 10 21.5t20.5 50
t23.5 69.5t20 81.5t10.5 85.5t-5.5 81q-19 89 -14 156.5t19 111.5t30 63.5t19 13.5q20 -31 31 -90.5t11.5 -133t-10 -154t-32.5 -155.5l-13 -25q40 44 87.5 76.5t101.5 48.5q36 10 65 -5t46 -45t18.5 -68.5t-17.5 -75.5q-21 -32 -47.5 -58.5t-55.5 -46.5zM211 154
q23 17 50.5 28.5t52.5 26t43.5 35.5t24.5 56q-27 -5 -51.5 -20t-45.5 -35t-39.5 -44t-34.5 -47z" />
    <glyph glyph-name="uniFEC3" unicode="&#x637;" horiz-adv-x="500" arabic-form="initial" 
d="M342 408q35 10 64 -5t45.5 -45t17.5 -68.5t-18 -75.5q-23 -38 -58 -68.5t-76.5 -54t-85 -40.5t-83 -28t-71.5 -16.5t-50 -6.5h-27q-5 1 -8 2t-6 3q-5 5 -9.5 15.5t-4.5 30.5q0 21 5 31.5t11 16.5q4 4 14 6h31q1 0 10 17.5t21 46.5t24 68t20.5 81.5t10 86.5t-7.5 84
q-20 92 -15 160.5t19.5 113t31 64.5t19.5 14q21 -31 32 -91t11.5 -135t-10.5 -157.5t-33 -158.5q37 39 81 67t95 42zM211 157q25 16 52.5 27.5t52.5 26t43 35.5t23 56q-27 -5 -50.5 -20t-44.5 -35t-40 -44t-36 -46z" />
    <glyph glyph-name="uniFEC4" unicode="&#x637;" horiz-adv-x="478" arabic-form="medial" 
d="M478 105q3 -2 5 -4.5t4 -6.5q4 -5 6.5 -15t2.5 -27t-2.5 -27.5t-6.5 -15.5q-5 -7 -9 -9h-178q-20 0 -51.5 1.5t-62.5 3t-56 2t-33 -0.5l-33 -3q-13 -2 -24.5 -2.5t-14.5 -0.5h-25q-8 0 -15 5q-5 5 -10 14t-5 30q0 20 5 31.5t10 18.5q3 2 7 3t8 3h31q1 2 10 21.5t20 49.5
t23 69.5t20.5 81.5t10.5 85t-6 82q-19 89 -14 156.5t19.5 111t30.5 63t19 12.5q20 -30 31 -89t11.5 -132t-10 -154t-32.5 -156l-13 -25q40 44 87.5 76.5t100.5 48.5q36 10 65.5 -5t46 -45t18 -68.5t-17.5 -75.5q-20 -32 -47 -58.5t-56 -46.5zM213 154q22 17 49.5 28.5t52 26
t43.5 35t24 55.5q-27 -5 -51 -19.5t-45.5 -34.5t-39.5 -44t-33 -47z" />
    <glyph glyph-name="uni0638" unicode="&#x638;" horiz-adv-x="503" arabic-form="isolated" 
d="M342 408q35 10 64 -5t45.5 -45t17.5 -68.5t-18 -75.5q-23 -38 -58 -68.5t-76.5 -54t-85 -40.5t-83 -28t-71.5 -16.5t-50 -6.5h-27q-7 0 -14 5q-5 6 -9.5 16t-4.5 31q0 20 5 30.5t11 16.5t14 6h31q1 0 10 17.5t21 47t24.5 68t20.5 81.5t10 87t-7 84q-20 91 -15.5 159.5
t19 113t31.5 64.5t20 14q20 -31 31 -91t11.5 -135t-10 -157.5t-32.5 -158.5q74 80 175 109zM211 157q25 16 53 27.5t52.5 25.5t42.5 35t23 57q-27 -5 -50.5 -19.5t-44.5 -35t-40 -44t-36 -46.5zM403 540q-13 -8 -35 -1t-40 22.5t-27 38t3 46.5q5 9 14.5 18t21 16t24 10.5
t23.5 2.5q24 -2 37 -21t15 -44t-7 -50t-29 -38z" />
    <glyph glyph-name="uniFEC6" unicode="&#x638;" horiz-adv-x="479" arabic-form="final" 
d="M479 105q2 -2 4 -4.5t5 -6.5q8 -10 8 -42q0 -18 -2 -28t-6 -15l-5 -5l-4 -4h-179q-20 0 -51.5 1.5t-62 3t-56 2t-33.5 -0.5l-32 -3q-14 -2 -25.5 -2.5t-14.5 -0.5h-25q-9 0 -14 5q-6 5 -10.5 14.5t-4.5 29.5t4.5 31.5t10.5 18.5q6 6 14 6h31q1 2 10 21.5t20.5 49.5
t23.5 69.5t20 81.5t10 85t-6 82q-18 89 -13 156t19 111t30.5 63.5t19.5 12.5q20 -30 30.5 -89t11.5 -132.5t-9.5 -154t-32.5 -155.5l-14 -25q40 44 88 76.5t101 47.5q36 10 65.5 -5t46 -44.5t18 -68.5t-17.5 -75q-21 -32 -47.5 -58.5t-55.5 -46.5zM214 154q22 17 49 28.5
t52 26t43.5 35t23.5 55.5q-27 -5 -51 -19.5t-45 -34.5t-39 -44t-33 -47zM419 594q-1 -7 -22 -15.5t-46 -13t-47.5 -3.5t-26.5 14q-3 9 -4.5 21.5t0 26.5t5.5 26.5t11 21.5q16 17 39.5 16t44 -14t34.5 -34.5t12 -45.5z" />
    <glyph glyph-name="uniFEC7" unicode="&#x638;" horiz-adv-x="492" arabic-form="initial" 
d="M342 408q35 10 64 -5t45.5 -44.5t17.5 -68t-18 -75.5q-23 -39 -58 -69.5t-76.5 -54t-85 -40.5t-83 -28t-71.5 -16.5t-50 -6.5h-27q-10 2 -14 6q-5 5 -9.5 15t-4.5 30q0 21 4.5 32t11.5 16q2 2 6 3.5t8 2.5h31q1 0 10 17.5t21 47t24 68t20.5 81t10 86.5t-7.5 84
q-20 92 -15 160.5t19.5 113t31 64.5t19.5 14q21 -31 32 -91t11.5 -135t-10.5 -157.5t-33 -158.5q37 39 81 67t95 42zM211 157q25 16 52.5 27.5t52.5 26t43 35.5t23 56q-27 -5 -51 -20t-45 -35t-39.5 -44t-35.5 -46zM403 539q-13 -8 -35 -0.5t-40.5 23.5t-27.5 38t3 45
q6 9 15.5 18t21 16t24 11.5t23.5 3.5q24 -2 37 -21.5t15 -44.5t-7 -50.5t-29 -38.5z" />
    <glyph glyph-name="uniFEC8" unicode="&#x638;" horiz-adv-x="478" arabic-form="medial" 
d="M478 105q3 -2 5 -4.5t5 -6.5q3 -5 5.5 -15t2.5 -27q0 -18 -2.5 -28t-5.5 -15l-5 -5t-5 -4h-178q-20 0 -51.5 1.5t-62.5 3t-56 2t-33 -0.5l-32 -3q-14 -2 -26 -2.5t-15 -0.5h-24q-9 0 -14 5q-7 5 -11 14.5t-4 29.5t4 31.5t11 18.5q2 2 5.5 3t8.5 3h30q2 2 10.5 21.5
t20 49.5t24 69.5t20.5 81.5t10 85t-6 82q-19 89 -14 156t19.5 111t30.5 63.5t19 12.5q20 -30 31 -89t11.5 -132.5t-10 -154t-32.5 -155.5l-13 -25q40 44 87.5 76.5t100.5 47.5q36 10 65.5 -5t46.5 -44.5t18.5 -68.5t-17.5 -75q-21 -32 -47.5 -58.5t-55.5 -46.5zM212 154
q23 17 50.5 28.5t52 26t43.5 35t24 55.5q-27 -5 -51 -19.5t-45 -34.5t-39.5 -44t-34.5 -47zM419 594q-1 -7 -22 -15.5t-46 -13t-47.5 -3.5t-26.5 14q-3 9 -4.5 21.5t-0.5 26.5t5 26.5t11 21.5q17 17 40 16t44 -14t35 -34.5t12 -45.5z" />
    <glyph glyph-name="uni0639" unicode="&#x639;" horiz-adv-x="612" arabic-form="isolated" 
d="M474 577q13 -1 21 -9t12 -18.5t4.5 -22t-1.5 -19.5q-15 -16 -37.5 -26.5t-43.5 -21t-36 -24t-13 -34.5q9 -24 24.5 -30t33.5 -4t35.5 7.5t29.5 5.5q25 -2 42.5 -7.5t28.5 -18.5t16.5 -34t7.5 -53q-5 -11 -13.5 -15.5t-20.5 -7.5q-5 -1 -12 -1.5t-15 0.5q-71 4 -133 -14
t-113 -50t-90 -72.5t-64 -81.5t-34 -78t-1 -61q17 -55 58.5 -79t96.5 -27t117.5 10t122.5 32t111 39t83 31q-8 -26 -38.5 -58.5t-74 -63.5t-94.5 -56.5t-99 -36.5q-79 -14 -144 1.5t-114 51t-80 87.5t-41.5 110.5t1.5 120t49.5 116t101.5 98.5t158 68q-25 49 -23 94.5
t25 79.5t63.5 54t92.5 18z" />
    <glyph glyph-name="uniFECA" unicode="&#x639;" horiz-adv-x="636" arabic-form="final" 
d="M636 105q5 -1 9 -1.5t9 -2.5q6 -4 9.5 -13.5t6.5 -32.5q0 -24 -5.5 -35t-11.5 -16q-8 -4 -17 -4q-18 0 -35 6.5t-28 14.5q-8 5 -14.5 10.5t-12.5 11.5q-42 16 -94 6t-105 -37t-101.5 -67.5t-83 -85.5t-50.5 -90.5t-3 -83.5q19 -55 59.5 -79.5t93.5 -28.5t113.5 8t120 31
t112.5 40t92 35q-69 -98 -146.5 -150t-153.5 -67t-146 2.5t-124 58.5t-87 100.5t-36 128t29.5 141.5t109.5 141q35 27 74 44.5t73 29.5t57 20t26 15q7 8 7.5 21t-13.5 27q-4 4 -16 11t-27 17t-30 23t-24 28t-9 32.5t15 36.5q11 13 35.5 28.5t57 29.5t70 25t74 16t69 1.5
t55.5 -18.5q20 -14 24.5 -35.5t-2 -45t-23 -47t-39.5 -41.5q-42 -32 -46 -61t10.5 -50.5t37.5 -34.5t34 -13zM517 333q-6 4 -25 0t-42 -11.5t-45 -16t-33 -12.5q6 1 14.5 -3.5t17.5 -12.5t17.5 -17.5t14.5 -17.5q-2 10 11 22.5t29 24.5t29.5 23.5t11.5 20.5z" />
    <glyph glyph-name="uniFECB" unicode="&#x639;" horiz-adv-x="387" arabic-form="initial" 
d="M-36 53q0 19 5 28.5t10 14.5q7 6 17 9h44h48q-48 43 -60 86t0.5 81t43.5 69.5t69.5 53t79 31t72.5 3.5q19 -6 29 -20.5t11.5 -30.5t-5.5 -28.5t-22 -13.5q-1 -2 -15 -4.5t-34 -7t-42.5 -11.5t-41.5 -17t-31.5 -23.5t-11.5 -31.5q1 -35 15.5 -49.5t36 -16.5t46.5 6t47 18
t38 19.5t19 11.5q17 9 33.5 4t27 -16.5t13.5 -27t-7 -28.5q-34 -52 -81 -83.5t-97.5 -49t-97.5 -23.5t-81 -6h-42q-10 0 -19 7q-6 5 -11.5 15.5t-5.5 30.5z" />
    <glyph glyph-name="uniFECC" unicode="&#x639;" horiz-adv-x="429" arabic-form="medial" 
d="M-30 52q0 23 5 34.5t13 16.5q3 2 7.5 2h9.5q8 0 23.5 3t33.5 8.5t35.5 13.5t29 18.5t13.5 22.5t-11 26q-3 4 -14.5 11t-25.5 16.5t-28 21.5t-22.5 26.5t-8.5 31t14 35.5q10 13 33 27.5t54 28t67 24t70.5 15t65.5 0t53 -19.5q19 -12 24 -33t-2 -43.5t-22.5 -45
t-36.5 -37.5q-19 -14 -29 -30t-13 -30.5t-0.5 -27t8.5 -19.5q20 -23 44.5 -33t68.5 -10q9 0 12 -6q6 -5 9 -14.5t3 -26.5q0 -24 -3 -35t-8 -16q-3 -7 -10 -7q-43 0 -78.5 12.5t-62 28t-43.5 30t-23 19.5q-5 -1 -23.5 -15.5t-47.5 -31t-68.5 -30t-85.5 -13.5q-9 0 -16 5
q-6 5 -10 15.5t-4 31.5zM130 290q6 1 16.5 -8.5t22 -23.5t22 -29t15.5 -23q-2 10 9.5 26t25 33.5t24.5 32.5t10 23q-6 4 -25.5 1t-42.5 -9t-44.5 -13t-32.5 -10z" />
    <glyph glyph-name="uni063A" unicode="&#x63a;" horiz-adv-x="603" arabic-form="isolated" 
d="M465 578q12 -2 20 -10t12 -18.5t5 -22t-1 -20.5q-15 -15 -37.5 -25.5t-43.5 -21t-36 -23.5t-13 -35q9 -24 25 -30.5t34 -4t35.5 8t29.5 5.5q25 -2 42 -7.5t28 -18.5t16.5 -34t7.5 -53q-5 -11 -14 -16t-20 -7q-7 0 -13 -1t-14 1q-71 4 -133 -14t-113 -50t-90 -72.5
t-64 -82t-34 -78.5t-1 -61q13 -41 39.5 -64.5t63 -33.5t80 -8t90 10.5t92.5 22.5t88 29t77 28.5t59 21.5q-8 -26 -38.5 -58.5t-74 -63.5t-94.5 -56t-99 -36q-79 -14 -144 1t-114 51t-80 87.5t-41 110t2 120t49.5 116.5t101 99t157.5 68q-25 49 -23 94t25 79.5t63.5 54
t92.5 18.5zM438 689q-13 -8 -34.5 -1t-40 23t-28 38.5t2.5 46.5q13 18 37.5 34t47.5 13q24 -2 36.5 -21t14.5 -44.5t-7 -50.5t-29 -38z" />
    <glyph glyph-name="uniFECE" unicode="&#x63a;" horiz-adv-x="634" arabic-form="final" 
d="M634 105q11 0 16 -2q6 -2 11 -13t8 -35q0 -24 -5.5 -35t-11.5 -16q-5 -2 -8.5 -3t-9.5 -1q-17 0 -34 6.5t-29 14.5q-14 9 -27 21q-41 16 -93 6.5t-105 -37t-101.5 -67.5t-83 -85t-50.5 -91t-3 -83q19 -54 59.5 -79t93 -29t113 8t120 31t112.5 40.5t92 35.5
q-69 -99 -146.5 -151t-153.5 -67t-146 3t-123.5 58.5t-86.5 100t-36 128t29.5 141.5t109.5 141q35 27 74 44.5t72.5 29.5t56.5 20t26 15q7 9 7.5 21.5t-13.5 27.5q-4 4 -16 11t-27 17t-29.5 22.5t-23.5 28t-9 32.5t15 36q10 14 34.5 29.5t57 29.5t70 25t74 15.5t69.5 1
t56 -18.5q20 -14 24.5 -35.5t-2 -45t-23.5 -47t-40 -41.5q-28 -21 -38 -41t-8.5 -38t12 -32.5t23.5 -25t26.5 -16.5t20.5 -6zM517 333q-6 4 -25 0t-42 -11.5t-45 -16t-33 -12.5q6 1 14.5 -3.5t17.5 -12.5t17.5 -17.5t14.5 -17.5q-2 10 11 22.5t29 24.5t29.5 23.5t11.5 20.5z
M485 576q-13 -7 -34.5 0t-40 23t-28 38.5t2.5 45.5q12 19 37 34.5t48 14.5q24 -2 36.5 -21.5t14.5 -45t-7 -50.5t-29 -39z" />
    <glyph glyph-name="uniFECF" unicode="&#x63a;" horiz-adv-x="419" arabic-form="initial" 
d="M-37 55q0 17 5.5 27t11.5 16q6 4 16 7h43h49q-48 43 -60 85.5t0 81t43 70t69.5 53.5t79.5 32t73 4q19 -6 29 -21t11.5 -31t-5.5 -28.5t-22 -14.5q-2 -1 -15.5 -3.5t-33.5 -7t-42.5 -11t-42 -16.5t-31.5 -23.5t-11 -31.5q1 -35 15.5 -49.5t35.5 -16.5t46 5.5t47.5 17.5
t38.5 19t20 11q16 9 32.5 4.5t27 -16t13.5 -27t-7 -27.5q-34 -52 -81 -84t-97.5 -50t-97.5 -24t-81 -6h-42q-12 2 -18 8q-7 5 -13 16t-6 31zM220 573q-11 -8 -31.5 -2t-39 21t-28 36.5t2.5 45.5q4 10 13.5 19.5t21.5 17t25.5 11t24.5 2.5q22 -2 34 -21.5t13.5 -44t-7.5 -49
t-29 -36.5z" />
    <glyph glyph-name="uniFED0" unicode="&#x63a;" horiz-adv-x="430" arabic-form="medial" 
d="M-30 52q0 23 5 34t12 16q5 2 9.5 2.5t9.5 0.5q11 0 39 7t53 19t37.5 29t-6.5 37q-3 4 -14.5 11t-26 17t-28.5 22t-22.5 26.5t-8 31t14.5 34.5q10 13 33 28t54 28.5t67 24t70.5 14.5t65.5 0t53 -19q19 -12 24 -33t-2 -44t-22.5 -45.5t-36.5 -37.5q-19 -14 -29 -30
t-13 -30.5t0 -26.5t9 -19q20 -24 44.5 -34t68.5 -10q6 -1 11 -5q12 -9 12 -42q0 -23 -3 -34.5t-8 -16.5q-3 -7 -10 -7q-43 0 -78.5 12.5t-62 28t-43.5 30.5t-23 20q-5 -2 -23 -16.5t-47.5 -31t-69 -30t-85.5 -13.5q-7 0 -16 6q-6 5 -10 15.5t-4 30.5zM265 552
q-13 -8 -34.5 -1t-40 23t-28 38t2.5 46q12 19 37 35t48 13q24 -2 37 -21.5t15 -44.5t-7.5 -50t-29.5 -38zM130 290q6 1 16.5 -8.5t22 -23.5t22 -29t15.5 -23q-2 10 9.5 26t25 33.5t24.5 32.5t10 23q-6 4 -25.5 1t-42.5 -9t-44.5 -13t-32.5 -10z" />
    <glyph glyph-name="uni0641" unicode="&#x641;" horiz-adv-x="1075" arabic-form="isolated" 
d="M990 99q2 -4 -25.5 -24.5t-78.5 -47.5t-123.5 -56t-160.5 -50t-188 -29.5t-207 4.5q-20 1 -48.5 33.5t-54.5 81t-45.5 105.5t-20.5 107q-1 24 6 40t19 28.5t27.5 22.5t31.5 22q31 22 68.5 43.5t78.5 41t83 35.5t82 28q-6 -9 -18 -23t-26.5 -30.5t-31.5 -34t-33 -34.5
l-84 -84q-14 -17 -29 -31t-26 -29.5t-14.5 -34.5t6.5 -45q7 -20 24.5 -37.5t41 -30.5t50 -20.5t50.5 -5.5q53 1 110 4t113 10.5t108.5 19t97.5 29.5q-36 11 -48.5 38.5t-17.5 56.5q-3 29 0.5 63.5t22.5 64.5t57.5 50t104.5 20q20 -2 43.5 -14.5t44 -33t36 -48.5t19.5 -61
t-5.5 -69.5t-39.5 -74.5zM801 204q4 -11 23.5 -11t41.5 8.5t40 24.5t18 37q-6 15 -28 20.5t-45 -0.5t-39.5 -25.5t-10.5 -53.5zM888 491q-12 -6 -32 0.5t-36.5 21.5t-25.5 35.5t2 41.5q6 8 15 16t19.5 15t21.5 10.5t21 2.5q22 -2 34 -20t14 -41t-6 -46.5t-27 -35.5z" />
    <glyph glyph-name="uniFED2" unicode="&#x641;" horiz-adv-x="1054" arabic-form="final" 
d="M838 507q-12 -7 -31.5 -0.5t-36.5 21t-25.5 35t2.5 41.5q5 8 14 16.5t19.5 15t22 10.5t21.5 3q22 -2 33.5 -20t13 -41t-6.5 -46t-26 -35zM1055 105q5 -1 7.5 -3.5l4.5 -4.5q5 -5 8 -14.5t3 -29.5q0 -16 -4 -28.5t-9 -17.5q-2 -2 -5 -4.5t-7 -2.5h-27.5t-39 3t-39 10.5
t-28.5 23.5q-15 -20 -75.5 -48.5t-153.5 -53.5t-212.5 -38.5t-252.5 -3.5q-13 1 -30.5 16.5t-35.5 40.5t-36.5 57.5t-32.5 68t-23.5 72t-10.5 69.5q0 23 7 39.5t19 29.5t27.5 23t32.5 21q31 22 68 43t77 40.5t81 35.5t81 27q-6 -9 -18 -22t-26.5 -29t-30.5 -33.5t-32 -34.5
q-19 -20 -39.5 -41t-41.5 -44q-14 -17 -29 -30.5t-25.5 -29t-14 -34.5t5.5 -45q6 -20 23.5 -37t40.5 -30t49.5 -20.5t51.5 -6.5q53 1 109.5 4.5t112 11t107.5 19t96 29.5q-18 6 -29 16t-18.5 22.5t-11.5 27t-7 28.5q-3 29 1 63.5t23 64t57.5 49t104.5 19.5q20 -2 42 -13.5
t41.5 -31t33 -45.5t16.5 -57.5t-7.5 -67t-39.5 -73.5h61zM814 200q4 -12 24 -12t42 8.5t39.5 24.5t16.5 36q-5 15 -26 20.5t-44 -0.5t-39.5 -24.5t-12.5 -52.5z" />
    <glyph glyph-name="uniFED3" unicode="&#x641;" horiz-adv-x="399" arabic-form="initial" 
d="M0 0q-6 0 -14 4q-6 6 -10 16.5t-4 30.5q0 21 4 32.5t10 16.5q7 4 14 5h9q16 -2 33 0l32.5 6.5t31.5 15.5q-21 5 -38 16t-19 40q1 30 15 68.5t38 71.5t58.5 54.5t77.5 18.5q27 -3 56.5 -24.5t52 -55t33 -75.5t1.5 -85q-7 -29 -28.5 -52t-51 -40.5t-64 -29.5t-68 -19.5
t-63 -11t-48.5 -3.5h-58zM144 233q16 -7 35 -8.5t39 -0.5t41 4t41 5q1 42 -21 59t-50.5 14.5t-54 -22t-30.5 -51.5zM250 542q-13 -8 -35 -1t-40.5 23t-28 38.5t2.5 45.5q13 18 37.5 34t47.5 14q24 -2 36.5 -21t14.5 -44t-7 -50.5t-28 -38.5z" />
    <glyph glyph-name="uniFED4" unicode="&#x641;" horiz-adv-x="382" arabic-form="medial" 
d="M382 105q5 -1 15 -5q5 -6 9.5 -16.5t4.5 -32.5q0 -19 -4 -29.5t-9 -15.5q-4 -4 -13 -6q-25 -1 -54 5q-23 5 -50.5 19t-52.5 41q-29 -18 -60.5 -30t-62.5 -20t-58 -11.5t-46 -3.5q-6 0 -10 1t-8 3q-6 5 -10.5 14t-4.5 30q0 24 4 35t10 18q8 4 16 4q6 0 15.5 1t20 3.5
t20.5 7t16 10.5q-20 3 -38.5 15t-21.5 41q1 30 15.5 68t39.5 71t60 53.5t78 16.5q27 -2 58 -25t54 -59.5t31.5 -82.5t-7.5 -93q-1 -3 3 -8t10 -9t14 -7t16 -3zM110 229q15 -14 36 -18.5t42.5 -2.5t41 8t31.5 13q1 29 -8.5 46t-25.5 24t-35 5t-36.5 -11.5t-30 -26
t-15.5 -37.5zM219 541q-13 -8 -34.5 -1t-39.5 23t-27.5 38.5t1.5 45.5q13 19 37.5 34.5t47.5 13.5q24 -2 37 -21t14.5 -44t-7.5 -50.5t-29 -38.5z" />
    <glyph glyph-name="uni0642" unicode="&#x642;" horiz-adv-x="958" arabic-form="isolated" 
d="M360 267q5 -33 -8.5 -65.5t-37 -65t-51.5 -66t-52 -67t-39 -68t-12 -70.5q2 -32 26 -61t65 -45.5t95 -15.5t116 27.5t128.5 83.5t132.5 154q-72 -1 -107 21t-42 55.5t9.5 72.5t48.5 73t74 56.5t87 22.5q20 0 40.5 -16t38 -39t28.5 -50.5t13 -49.5q5 -58 -13.5 -120
t-56 -120.5t-90 -111.5t-116 -94t-134 -66.5t-143.5 -29.5q-71 -5 -124 10t-89.5 43t-58.5 65.5t-31 77t-6.5 78t15.5 68.5q7 15 20.5 41t30 54t35 53.5t36.5 40.5q18 16 41 33t46.5 33.5t45.5 31t39 26.5zM686 108q10 -15 27.5 -17t37.5 1.5t40 9t35 6.5q9 32 3.5 49
t-20 21.5t-34 0t-38 -15.5t-33 -25.5t-18.5 -29.5zM943 545q3 -11 0 -15t-9.5 -6t-15.5 -3t-17 -4q-11 -9 -21 -22.5t-24 -19.5q-11 -5 -24 -3t-27 -3q-26 -6 -51.5 -13t-50 -12.5t-46.5 -7.5t-40 1q-13 2 -29 10.5t-29.5 20.5t-22.5 26t-7 27q4 20 31 30t67 14t87.5 3
t92 -5t81 -9t55.5 -9z" />
    <glyph glyph-name="uniFED6" unicode="&#x642;" horiz-adv-x="923" arabic-form="final" 
d="M340 261q5 -32 -8.5 -64t-36.5 -64.5t-51 -65.5t-52 -66t-39 -67t-12 -69q2 -34 26.5 -63.5t65 -46t94.5 -15.5t116 28t128.5 84t132.5 152q-72 -1 -107 21t-42 55.5t9.5 72.5t48.5 72.5t74 55.5t87 21q43 -2 68.5 -30.5t39 -64t18 -66t4.5 -36.5h18q2 -1 4.5 -1.5
t5.5 -3.5q4 -5 7.5 -15t3.5 -30t-3.5 -32t-7.5 -17q-3 -2 -5.5 -3.5t-4.5 -2.5h-49q-26 -75 -79.5 -143t-125 -120.5t-156 -86t-172.5 -39.5q-71 -5 -124 10t-89.5 43t-58.5 65.5t-31 77t-6 77.5t16 68q7 14 20.5 39.5t30 53t35 53t35.5 40.5q19 16 42 33t46 33t45 30.5
t39 26.5zM668 104q10 -15 27.5 -17t37.5 1t39.5 8.5t34.5 7.5q9 32 3.5 48t-20 21t-33.5 0.5t-37.5 -15.5t-33 -25.5t-18.5 -28.5zM886 529q3 -11 0 -15.5t-9.5 -6t-15 -3t-16.5 -5.5q-13 -7 -22.5 -20t-23.5 -19q-13 -5 -25.5 -3t-26.5 -3q-25 -6 -50.5 -13t-50 -12.5
t-46.5 -8t-40 0.5q-12 3 -28 11.5t-30 20.5t-23 26t-7 28q4 19 31 29t66.5 14t87 2.5t92 -5.5t81.5 -9t56 -9z" />
    <glyph glyph-name="uniFED7" unicode="&#x642;" horiz-adv-x="404" arabic-form="initial" 
d="M0 0q-6 0 -14 4q-5 7 -9 17t-4 31t4 32t9 16q4 3 14 5h9q17 -1 35 0q14 3 31.5 7t31.5 16q-21 5 -38.5 16t-19.5 40q1 30 15 68.5t39 71.5t59.5 54.5t77.5 18.5q27 -3 56 -24.5t51 -55t32.5 -75t1.5 -84.5q-7 -29 -28 -52.5t-50 -41t-64 -30t-68.5 -20t-63 -11
t-49.5 -3.5h-58zM146 233q16 -7 34.5 -8.5t39 0t41 4t39.5 4.5q1 28 -9 45t-26 24t-35.5 5t-37 -11.5t-30.5 -25.5t-16 -37zM385 609q0 -16 -16.5 -24.5t-37.5 -15t-41 -15t-27 -24.5q-31 -8 -65.5 -9t-62.5 7t-43.5 27.5t-8.5 53.5q77 16 153.5 18t148.5 -18z" />
    <glyph glyph-name="uniFED8" unicode="&#x642;" horiz-adv-x="384" arabic-form="medial" 
d="M381 105q5 0 8 -2t7 -4q5 -5 10 -15.5t5 -32.5q0 -18 -4.5 -28.5t-9.5 -15.5q-6 -7 -13 -7q-14 -1 -27 0t-27 5q-23 6 -50.5 20t-53.5 41q-28 -18 -60 -30.5t-62.5 -20.5t-57.5 -11.5t-46 -3.5q-12 0 -17 4q-7 5 -12 14.5t-5 29.5q0 24 5 35.5t10 16.5q7 5 16 5
q6 0 15.5 1t20 3.5t20.5 7t16 10.5q-20 4 -38.5 16t-22.5 42q2 30 16.5 67.5t39.5 70.5t60 54t78 17q27 -3 58 -26.5t54 -60t32 -82.5t-7 -92q-3 -7 11.5 -17.5t30.5 -10.5zM260 230q1 43 -21 60t-50 14.5t-52.5 -22.5t-28.5 -52q15 -14 36 -18.5t42.5 -3t41 7.5t32.5 14z
M347 634q0 -16 -16.5 -24.5t-37.5 -15t-41 -15t-27 -24.5q-31 -8 -65.5 -9t-62.5 7t-43.5 27.5t-8.5 53.5q77 16 153.5 18t148.5 -18z" />
    <glyph glyph-name="uni0643" unicode="&#x643;" horiz-adv-x="919" arabic-form="isolated" 
d="M1448 1243q32 -25 35 -54t-12.5 -59t-44.5 -59.5t-61.5 -54.5t-64 -44t-50.5 -28q-8 -5 -18.5 -3t-18.5 -1q-44 -17 -85 -41t-79.5 -51.5t-75.5 -57.5t-74 -59q-30 -22 -56.5 -47t-53.5 -49.5t-55.5 -48.5t-62.5 -43q6 28 20.5 53.5t34.5 49.5t43 46.5t45 45.5
q86 91 181.5 174t201.5 167q30 22 61.5 47t63 48.5t63.5 41.5t63 27zM791 584q31 -2 49.5 -20.5t27 -47t9 -64t-4 -72.5t-12.5 -72.5t-16 -62.5q-6 -24 -19 -53.5t-33.5 -59.5t-49.5 -59.5t-66 -54.5q-21 -14 -59.5 -29.5t-87.5 -28.5t-104.5 -21.5t-111.5 -8t-108 11
t-94 35.5q-23 20 -39.5 49.5t-25.5 64t-9.5 72t7.5 75.5q10 23 45 43.5t81.5 39.5t97.5 37t92 36q4 -13 -1.5 -22.5t-16 -18t-22.5 -17.5t-20 -20q-6 -7 -18 -21.5t-26 -32t-29.5 -37.5t-27.5 -37.5t-19 -32t-6 -21.5q2 -10 14 -22.5t32.5 -23t47 -17t56.5 -3.5
q27 2 62.5 9.5t74.5 18t78 25t73 32t59.5 37t37.5 41.5q16 29 24 66t12 76t6.5 76.5t6 67t11 48t22.5 19.5z" />
    <glyph glyph-name="uniFEDA" unicode="&#x6a9;" horiz-adv-x="799" arabic-form="final" 
d="M795 105q1 0 7.5 -0.5t14 -5t13.5 -15.5t6 -32q0 -20 -5.5 -30.5t-12.5 -15.5q-3 -2 -8.5 -3.5t-10.5 -2.5q-17 0 -39.5 1t-46 4.5t-43.5 9.5t-32 16q-6 -4 -26 -11.5t-49 -17t-63.5 -19t-68.5 -19t-65.5 -17t-54.5 -11.5q-65 -10 -126 6t-102.5 53.5t-57 94.5t10.5 128
q9 22 39.5 42t65 34.5t64 22.5t37.5 6q-14 -31 -37 -59t-41 -54.5t-25.5 -53.5t9.5 -56q25 -22 64 -28.5t85.5 -1t96 20t93.5 32t79.5 37t53.5 34.5q15 11 32 42t32 70.5t25 82t11 75.5q2 24 3 49.5t15 50.5q9 10 17 12t15 0t13 -7.5t11 -11.5q29 -62 29 -119t-16 -109.5
t-42 -100.5t-48 -91q-5 -8 3 -14t21 -10t28 -6t26 -2zM1401 1241q31 -25 34 -54t-12.5 -59t-44.5 -59.5t-61 -54.5t-63.5 -44t-50.5 -28q-8 -5 -18.5 -3t-19.5 -1q-44 -17 -84.5 -41t-79.5 -51.5t-76 -57.5t-74 -59q-30 -22 -56.5 -47t-53.5 -49.5t-55.5 -48.5t-62.5 -43
q6 28 21 53.5t34.5 49.5t42.5 47t46 45q86 91 181 174t201 168q31 22 62.5 47t63 48t63.5 41t63 27z" />
    <glyph glyph-name="uniFEDB" unicode="&#x6a9;" horiz-adv-x="323" arabic-form="initial" 
d="M875 1299q32 -25 35 -54t-12.5 -59t-44.5 -59.5t-61.5 -54.5t-64 -44t-50.5 -28q-8 -5 -18.5 -3t-18.5 -1q-44 -17 -85 -41t-79.5 -51.5t-75.5 -57.5t-74 -59q-30 -22 -56.5 -47t-53.5 -49.5t-55.5 -48.5t-62.5 -43q6 28 20.5 53.5t34.5 49.5t43 46.5t45 45.5
q86 91 181.5 174t201.5 167q30 22 61.5 47t63 48.5t63.5 41.5t63 27zM269 379q8 -81 -8.5 -150t-52.5 -120t-89.5 -80t-118.5 -29h3q-9 0 -12 4q-6 3 -9 11.5t-3 28.5q0 24 3 36t9 19q4 6 12 6h3q54 0 87 40.5t49.5 104.5t18 142t-9.5 153q-2 21 12 36t32.5 21t35 -0.5
t19.5 -28.5q7 -55 12 -100.5t7 -93.5z" />
    <glyph glyph-name="uniFEDC" unicode="&#x6a9;" horiz-adv-x="233" arabic-form="medial" 
d="M850 1264q32 -24 35 -53.5t-12.5 -59.5t-44.5 -59t-61.5 -54t-64 -44t-50.5 -28q-8 -5 -18.5 -3t-18.5 -1q-44 -17 -85 -41t-79.5 -51.5t-75.5 -57.5t-74 -59q-30 -23 -56.5 -48t-53.5 -49.5t-55.5 -48t-62.5 -42.5q6 28 20.5 53.5t34.5 49.5t43 46.5t45 45.5
q86 91 181.5 174t201.5 167q30 22 61.5 47t63 48t63.5 41t63 27zM254 55q1 -14 -2 -26.5t-7 -20.5q-3 -7 -12 -8q-34 0 -58.5 18.5t-40.5 48.5q-23 -35 -54 -51t-80 -16q-5 1 -11 7q-5 8 -7.5 21.5t-2.5 29.5q0 24 2.5 32t7.5 12q4 2 7 2.5t8 0.5q35 0 54 11t28 29
t10.5 41.5t0.5 49.5q-2 79 8.5 151.5t34.5 139.5q9 23 27.5 20t29.5 -27q20 -33 27.5 -70.5t6 -77t-11 -80t-22.5 -80.5q-5 -14 -8.5 -32t-2 -35t11 -28.5t32.5 -11.5q4 0 8.5 -3t7.5 -6q5 -5 6 -19t2 -22z" />
    <glyph glyph-name="uni06AF" unicode="&#x6af;" horiz-adv-x="895" arabic-form="isolated" 
d="M1435 1245q31 -25 34.5 -54t-12.5 -59t-45 -59t-61 -54t-63.5 -44t-50.5 -28q-8 -5 -18.5 -3t-19.5 -2q-44 -17 -84.5 -40.5t-79.5 -51t-76 -57.5t-74 -59q-30 -23 -56.5 -48t-53.5 -49.5t-55.5 -48t-62.5 -42.5q6 28 21 53.5t34.5 49.5t42.5 46.5t46 45.5q86 91 181 174
t201 167q31 22 62.5 47t63 48t63.5 41t63 27zM778 587q31 -2 49.5 -20.5t27 -47t9 -64t-4 -72.5t-12.5 -72.5t-16 -63.5q-6 -24 -19.5 -53t-34 -59t-49 -60t-65.5 -55q-21 -14 -59.5 -29.5t-87.5 -28.5t-104.5 -21.5t-111.5 -8t-108 11t-94 35.5q-23 21 -39.5 50t-25.5 63.5
t-10 72.5t7 75q10 23 45.5 43.5t82 39.5t97 37.5t91.5 36.5q5 -13 -0.5 -22.5t-16 -18t-22.5 -17.5t-20 -20q-9 -11 -30.5 -36.5t-43.5 -54.5t-38.5 -55t-14.5 -37q2 -10 14.5 -22.5t32.5 -23t46.5 -17t56.5 -3.5q27 3 62.5 10t74.5 18t78 25t73 31.5t60 37t38 41.5
q16 29 24 66t12 76t6 77t6 67.5t11.5 48t22.5 19.5zM914 923q26 66 66 119.5t94 100.5q34 -14 40.5 -33.5t-5.5 -41t-37.5 -44t-54.5 -42t-57.5 -35.5t-45.5 -24z" />
    </font>
</defs>
</svg>
